<?xml version="1.0" encoding="utf-8" standalone="no"?>
<!DOCTYPE svg PUBLIC "-//W3C//DTD SVG 1.1//EN"
  "http://www.w3.org/Graphics/SVG/1.1/DTD/svg11.dtd">
<svg xmlns:xlink="http://www.w3.org/1999/xlink" width="504pt" height="432pt" viewBox="0 0 504 432" xmlns="http://www.w3.org/2000/svg" version="1.1">
 <metadata>
  <rdf:RDF xmlns:dc="http://purl.org/dc/elements/1.1/" xmlns:cc="http://creativecommons.org/ns#" xmlns:rdf="http://www.w3.org/1999/02/22-rdf-syntax-ns#">
   <cc:Work>
    <dc:type rdf:resource="http://purl.org/dc/dcmitype/StillImage"/>
    <dc:date>2023-06-19T16:23:10.917217</dc:date>
    <dc:format>image/svg+xml</dc:format>
    <dc:creator>
     <cc:Agent>
      <dc:title>Matplotlib v3.7.1, https://matplotlib.org/</dc:title>
     </cc:Agent>
    </dc:creator>
   </cc:Work>
  </rdf:RDF>
 </metadata>
 <defs>
  <style type="text/css">*{stroke-linejoin: round; stroke-linecap: butt}</style>
 </defs>
 <g id="figure_1">
  <g id="patch_1">
   <path d="M 0 432 
L 504 432 
L 504 0 
L 0 0 
z
" style="fill: #ffffff; stroke: #ffffff; stroke-linejoin: miter"/>
  </g>
  <g id="axes_1">
   <g id="patch_2">
    <path d="M 53.252188 384.999062 
L 428.733125 384.999062 
L 428.733125 15.12 
L 53.252188 15.12 
z
" style="fill: #ffffff; stroke: #7f7f7f; stroke-linejoin: miter"/>
   </g>
   <g id="matplotlib.axis_1">
    <g id="xtick_1">
     <g id="line2d_1">
      <path d="M 138.588764 384.999062 
L 138.588764 15.12 
" clip-path="url(#p646c3ad4d5)" style="fill: none; stroke: #e5e5e5; stroke-width: 0.8"/>
     </g>
     <g id="line2d_2">
      <path d="M 138.588764 384.999062 
" style="fill: none; stroke: #000000; stroke-width: 1.5"/>
      <defs>
       <path id="me5572bd5b0" d="M 0 0 
L 0 3.75 
" style="stroke: #333333"/>
      </defs>
      <g>
       <use xlink:href="#me5572bd5b0" x="138.588764" y="384.999062" style="stroke: #333333"/>
      </g>
     </g>
     <g id="text_1">
      <!-- 2040 -->
      <g style="fill: #4d4d4d" transform="translate(123.318764 399.867188) scale(0.12 -0.12)">
       <defs>
        <path id="DejaVuSans-32" d="M 1228 531 
L 3431 531 
L 3431 0 
L 469 0 
L 469 531 
Q 828 903 1448 1529 
Q 2069 2156 2228 2338 
Q 2531 2678 2651 2914 
Q 2772 3150 2772 3378 
Q 2772 3750 2511 3984 
Q 2250 4219 1831 4219 
Q 1534 4219 1204 4116 
Q 875 4013 500 3803 
L 500 4441 
Q 881 4594 1212 4672 
Q 1544 4750 1819 4750 
Q 2544 4750 2975 4387 
Q 3406 4025 3406 3419 
Q 3406 3131 3298 2873 
Q 3191 2616 2906 2266 
Q 2828 2175 2409 1742 
Q 1991 1309 1228 531 
z
" transform="scale(0.015625)"/>
        <path id="DejaVuSans-30" d="M 2034 4250 
Q 1547 4250 1301 3770 
Q 1056 3291 1056 2328 
Q 1056 1369 1301 889 
Q 1547 409 2034 409 
Q 2525 409 2770 889 
Q 3016 1369 3016 2328 
Q 3016 3291 2770 3770 
Q 2525 4250 2034 4250 
z
M 2034 4750 
Q 2819 4750 3233 4129 
Q 3647 3509 3647 2328 
Q 3647 1150 3233 529 
Q 2819 -91 2034 -91 
Q 1250 -91 836 529 
Q 422 1150 422 2328 
Q 422 3509 836 4129 
Q 1250 4750 2034 4750 
z
" transform="scale(0.015625)"/>
        <path id="DejaVuSans-34" d="M 2419 4116 
L 825 1625 
L 2419 1625 
L 2419 4116 
z
M 2253 4666 
L 3047 4666 
L 3047 1625 
L 3713 1625 
L 3713 1100 
L 3047 1100 
L 3047 0 
L 2419 0 
L 2419 1100 
L 313 1100 
L 313 1709 
L 2253 4666 
z
" transform="scale(0.015625)"/>
       </defs>
       <use xlink:href="#DejaVuSans-32"/>
       <use xlink:href="#DejaVuSans-30" x="63.623047"/>
       <use xlink:href="#DejaVuSans-34" x="127.246094"/>
       <use xlink:href="#DejaVuSans-30" x="190.869141"/>
      </g>
     </g>
    </g>
    <g id="xtick_2">
     <g id="line2d_3">
      <path d="M 229.614446 384.999062 
L 229.614446 15.12 
" clip-path="url(#p646c3ad4d5)" style="fill: none; stroke: #e5e5e5; stroke-width: 0.8"/>
     </g>
     <g id="line2d_4">
      <path d="M 229.614446 384.999062 
" style="fill: none; stroke: #000000; stroke-width: 1.5"/>
      <g>
       <use xlink:href="#me5572bd5b0" x="229.614446" y="384.999062" style="stroke: #333333"/>
      </g>
     </g>
     <g id="text_2">
      <!-- 2060 -->
      <g style="fill: #4d4d4d" transform="translate(214.344446 399.867188) scale(0.12 -0.12)">
       <defs>
        <path id="DejaVuSans-36" d="M 2113 2584 
Q 1688 2584 1439 2293 
Q 1191 2003 1191 1497 
Q 1191 994 1439 701 
Q 1688 409 2113 409 
Q 2538 409 2786 701 
Q 3034 994 3034 1497 
Q 3034 2003 2786 2293 
Q 2538 2584 2113 2584 
z
M 3366 4563 
L 3366 3988 
Q 3128 4100 2886 4159 
Q 2644 4219 2406 4219 
Q 1781 4219 1451 3797 
Q 1122 3375 1075 2522 
Q 1259 2794 1537 2939 
Q 1816 3084 2150 3084 
Q 2853 3084 3261 2657 
Q 3669 2231 3669 1497 
Q 3669 778 3244 343 
Q 2819 -91 2113 -91 
Q 1303 -91 875 529 
Q 447 1150 447 2328 
Q 447 3434 972 4092 
Q 1497 4750 2381 4750 
Q 2619 4750 2861 4703 
Q 3103 4656 3366 4563 
z
" transform="scale(0.015625)"/>
       </defs>
       <use xlink:href="#DejaVuSans-32"/>
       <use xlink:href="#DejaVuSans-30" x="63.623047"/>
       <use xlink:href="#DejaVuSans-36" x="127.246094"/>
       <use xlink:href="#DejaVuSans-30" x="190.869141"/>
      </g>
     </g>
    </g>
    <g id="xtick_3">
     <g id="line2d_5">
      <path d="M 320.640128 384.999062 
L 320.640128 15.12 
" clip-path="url(#p646c3ad4d5)" style="fill: none; stroke: #e5e5e5; stroke-width: 0.8"/>
     </g>
     <g id="line2d_6">
      <path d="M 320.640128 384.999062 
" style="fill: none; stroke: #000000; stroke-width: 1.5"/>
      <g>
       <use xlink:href="#me5572bd5b0" x="320.640128" y="384.999062" style="stroke: #333333"/>
      </g>
     </g>
     <g id="text_3">
      <!-- 2080 -->
      <g style="fill: #4d4d4d" transform="translate(305.370128 399.867188) scale(0.12 -0.12)">
       <defs>
        <path id="DejaVuSans-38" d="M 2034 2216 
Q 1584 2216 1326 1975 
Q 1069 1734 1069 1313 
Q 1069 891 1326 650 
Q 1584 409 2034 409 
Q 2484 409 2743 651 
Q 3003 894 3003 1313 
Q 3003 1734 2745 1975 
Q 2488 2216 2034 2216 
z
M 1403 2484 
Q 997 2584 770 2862 
Q 544 3141 544 3541 
Q 544 4100 942 4425 
Q 1341 4750 2034 4750 
Q 2731 4750 3128 4425 
Q 3525 4100 3525 3541 
Q 3525 3141 3298 2862 
Q 3072 2584 2669 2484 
Q 3125 2378 3379 2068 
Q 3634 1759 3634 1313 
Q 3634 634 3220 271 
Q 2806 -91 2034 -91 
Q 1263 -91 848 271 
Q 434 634 434 1313 
Q 434 1759 690 2068 
Q 947 2378 1403 2484 
z
M 1172 3481 
Q 1172 3119 1398 2916 
Q 1625 2713 2034 2713 
Q 2441 2713 2670 2916 
Q 2900 3119 2900 3481 
Q 2900 3844 2670 4047 
Q 2441 4250 2034 4250 
Q 1625 4250 1398 4047 
Q 1172 3844 1172 3481 
z
" transform="scale(0.015625)"/>
       </defs>
       <use xlink:href="#DejaVuSans-32"/>
       <use xlink:href="#DejaVuSans-30" x="63.623047"/>
       <use xlink:href="#DejaVuSans-38" x="127.246094"/>
       <use xlink:href="#DejaVuSans-30" x="190.869141"/>
      </g>
     </g>
    </g>
    <g id="xtick_4">
     <g id="line2d_7">
      <path d="M 411.66581 384.999062 
L 411.66581 15.12 
" clip-path="url(#p646c3ad4d5)" style="fill: none; stroke: #e5e5e5; stroke-width: 0.8"/>
     </g>
     <g id="line2d_8">
      <path d="M 411.66581 384.999062 
" style="fill: none; stroke: #000000; stroke-width: 1.5"/>
      <g>
       <use xlink:href="#me5572bd5b0" x="411.66581" y="384.999062" style="stroke: #333333"/>
      </g>
     </g>
     <g id="text_4">
      <!-- 2100 -->
      <g style="fill: #4d4d4d" transform="translate(396.39581 399.867188) scale(0.12 -0.12)">
       <defs>
        <path id="DejaVuSans-31" d="M 794 531 
L 1825 531 
L 1825 4091 
L 703 3866 
L 703 4441 
L 1819 4666 
L 2450 4666 
L 2450 531 
L 3481 531 
L 3481 0 
L 794 0 
L 794 531 
z
" transform="scale(0.015625)"/>
       </defs>
       <use xlink:href="#DejaVuSans-32"/>
       <use xlink:href="#DejaVuSans-31" x="63.623047"/>
       <use xlink:href="#DejaVuSans-30" x="127.246094"/>
       <use xlink:href="#DejaVuSans-30" x="190.869141"/>
      </g>
     </g>
    </g>
    <g id="xtick_5">
     <g id="line2d_9">
      <path d="M 93.075923 384.999062 
L 93.075923 15.12 
" clip-path="url(#p646c3ad4d5)" style="fill: none; stroke: #fafafa"/>
     </g>
    </g>
    <g id="xtick_6">
     <g id="line2d_10">
      <path d="M 184.101605 384.999062 
L 184.101605 15.12 
" clip-path="url(#p646c3ad4d5)" style="fill: none; stroke: #fafafa"/>
     </g>
    </g>
    <g id="xtick_7">
     <g id="line2d_11">
      <path d="M 275.127287 384.999062 
L 275.127287 15.12 
" clip-path="url(#p646c3ad4d5)" style="fill: none; stroke: #fafafa"/>
     </g>
    </g>
    <g id="xtick_8">
     <g id="line2d_12">
      <path d="M 366.152969 384.999062 
L 366.152969 15.12 
" clip-path="url(#p646c3ad4d5)" style="fill: none; stroke: #fafafa"/>
     </g>
    </g>
   </g>
   <g id="matplotlib.axis_2">
    <g id="ytick_1">
     <g id="line2d_13">
      <path d="M 53.252188 352.633136 
L 428.733125 352.633136 
" clip-path="url(#p646c3ad4d5)" style="fill: none; stroke: #e5e5e5; stroke-width: 0.8"/>
     </g>
     <g id="line2d_14">
      <path d="M 53.252188 352.633136 
" style="fill: none; stroke: #000000; stroke-width: 1.5"/>
      <defs>
       <path id="m0c4920c7f4" d="M 0 0 
L -3.75 0 
" style="stroke: #333333"/>
      </defs>
      <g>
       <use xlink:href="#m0c4920c7f4" x="53.252188" y="352.633136" style="stroke: #333333"/>
      </g>
     </g>
     <g id="text_5">
      <!-- 200 -->
      <g style="fill: #4d4d4d" transform="translate(24.597188 355.944386) scale(0.12 -0.12)">
       <use xlink:href="#DejaVuSans-32"/>
       <use xlink:href="#DejaVuSans-30" x="63.623047"/>
       <use xlink:href="#DejaVuSans-30" x="127.246094"/>
      </g>
     </g>
    </g>
    <g id="ytick_2">
     <g id="line2d_15">
      <path d="M 53.252188 275.704135 
L 428.733125 275.704135 
" clip-path="url(#p646c3ad4d5)" style="fill: none; stroke: #e5e5e5; stroke-width: 0.8"/>
     </g>
     <g id="line2d_16">
      <path d="M 53.252188 275.704135 
" style="fill: none; stroke: #000000; stroke-width: 1.5"/>
      <g>
       <use xlink:href="#m0c4920c7f4" x="53.252188" y="275.704135" style="stroke: #333333"/>
      </g>
     </g>
     <g id="text_6">
      <!-- 250 -->
      <g style="fill: #4d4d4d" transform="translate(24.597188 279.015385) scale(0.12 -0.12)">
       <defs>
        <path id="DejaVuSans-35" d="M 691 4666 
L 3169 4666 
L 3169 4134 
L 1269 4134 
L 1269 2991 
Q 1406 3038 1543 3061 
Q 1681 3084 1819 3084 
Q 2600 3084 3056 2656 
Q 3513 2228 3513 1497 
Q 3513 744 3044 326 
Q 2575 -91 1722 -91 
Q 1428 -91 1123 -41 
Q 819 9 494 109 
L 494 744 
Q 775 591 1075 516 
Q 1375 441 1709 441 
Q 2250 441 2565 725 
Q 2881 1009 2881 1497 
Q 2881 1984 2565 2268 
Q 2250 2553 1709 2553 
Q 1456 2553 1204 2497 
Q 953 2441 691 2322 
L 691 4666 
z
" transform="scale(0.015625)"/>
       </defs>
       <use xlink:href="#DejaVuSans-32"/>
       <use xlink:href="#DejaVuSans-35" x="63.623047"/>
       <use xlink:href="#DejaVuSans-30" x="127.246094"/>
      </g>
     </g>
    </g>
    <g id="ytick_3">
     <g id="line2d_17">
      <path d="M 53.252188 198.775133 
L 428.733125 198.775133 
" clip-path="url(#p646c3ad4d5)" style="fill: none; stroke: #e5e5e5; stroke-width: 0.8"/>
     </g>
     <g id="line2d_18">
      <path d="M 53.252188 198.775133 
" style="fill: none; stroke: #000000; stroke-width: 1.5"/>
      <g>
       <use xlink:href="#m0c4920c7f4" x="53.252188" y="198.775133" style="stroke: #333333"/>
      </g>
     </g>
     <g id="text_7">
      <!-- 300 -->
      <g style="fill: #4d4d4d" transform="translate(24.597188 202.086383) scale(0.12 -0.12)">
       <defs>
        <path id="DejaVuSans-33" d="M 2597 2516 
Q 3050 2419 3304 2112 
Q 3559 1806 3559 1356 
Q 3559 666 3084 287 
Q 2609 -91 1734 -91 
Q 1441 -91 1130 -33 
Q 819 25 488 141 
L 488 750 
Q 750 597 1062 519 
Q 1375 441 1716 441 
Q 2309 441 2620 675 
Q 2931 909 2931 1356 
Q 2931 1769 2642 2001 
Q 2353 2234 1838 2234 
L 1294 2234 
L 1294 2753 
L 1863 2753 
Q 2328 2753 2575 2939 
Q 2822 3125 2822 3475 
Q 2822 3834 2567 4026 
Q 2313 4219 1838 4219 
Q 1578 4219 1281 4162 
Q 984 4106 628 3988 
L 628 4550 
Q 988 4650 1302 4700 
Q 1616 4750 1894 4750 
Q 2613 4750 3031 4423 
Q 3450 4097 3450 3541 
Q 3450 3153 3228 2886 
Q 3006 2619 2597 2516 
z
" transform="scale(0.015625)"/>
       </defs>
       <use xlink:href="#DejaVuSans-33"/>
       <use xlink:href="#DejaVuSans-30" x="63.623047"/>
       <use xlink:href="#DejaVuSans-30" x="127.246094"/>
      </g>
     </g>
    </g>
    <g id="ytick_4">
     <g id="line2d_19">
      <path d="M 53.252188 121.846131 
L 428.733125 121.846131 
" clip-path="url(#p646c3ad4d5)" style="fill: none; stroke: #e5e5e5; stroke-width: 0.8"/>
     </g>
     <g id="line2d_20">
      <path d="M 53.252188 121.846131 
" style="fill: none; stroke: #000000; stroke-width: 1.5"/>
      <g>
       <use xlink:href="#m0c4920c7f4" x="53.252188" y="121.846131" style="stroke: #333333"/>
      </g>
     </g>
     <g id="text_8">
      <!-- 350 -->
      <g style="fill: #4d4d4d" transform="translate(24.597188 125.157381) scale(0.12 -0.12)">
       <use xlink:href="#DejaVuSans-33"/>
       <use xlink:href="#DejaVuSans-35" x="63.623047"/>
       <use xlink:href="#DejaVuSans-30" x="127.246094"/>
      </g>
     </g>
    </g>
    <g id="ytick_5">
     <g id="line2d_21">
      <path d="M 53.252188 44.91713 
L 428.733125 44.91713 
" clip-path="url(#p646c3ad4d5)" style="fill: none; stroke: #e5e5e5; stroke-width: 0.8"/>
     </g>
     <g id="line2d_22">
      <path d="M 53.252188 44.91713 
" style="fill: none; stroke: #000000; stroke-width: 1.5"/>
      <g>
       <use xlink:href="#m0c4920c7f4" x="53.252188" y="44.91713" style="stroke: #333333"/>
      </g>
     </g>
     <g id="text_9">
      <!-- 400 -->
      <g style="fill: #4d4d4d" transform="translate(24.597188 48.22838) scale(0.12 -0.12)">
       <use xlink:href="#DejaVuSans-34"/>
       <use xlink:href="#DejaVuSans-30" x="63.623047"/>
       <use xlink:href="#DejaVuSans-30" x="127.246094"/>
      </g>
     </g>
    </g>
    <g id="ytick_6">
     <g id="line2d_23">
      <path d="M 53.252188 314.168635 
L 428.733125 314.168635 
" clip-path="url(#p646c3ad4d5)" style="fill: none; stroke: #fafafa"/>
     </g>
    </g>
    <g id="ytick_7">
     <g id="line2d_24">
      <path d="M 53.252188 237.239634 
L 428.733125 237.239634 
" clip-path="url(#p646c3ad4d5)" style="fill: none; stroke: #fafafa"/>
     </g>
    </g>
    <g id="ytick_8">
     <g id="line2d_25">
      <path d="M 53.252188 160.310632 
L 428.733125 160.310632 
" clip-path="url(#p646c3ad4d5)" style="fill: none; stroke: #fafafa"/>
     </g>
    </g>
    <g id="ytick_9">
     <g id="line2d_26">
      <path d="M 53.252188 83.38163 
L 428.733125 83.38163 
" clip-path="url(#p646c3ad4d5)" style="fill: none; stroke: #fafafa"/>
     </g>
    </g>
   </g>
   <g id="PolyCollection_1">
    <path d="M 70.319503 323.555866 
L 70.319503 340.87976 
L 93.075923 337.539766 
L 115.832344 337.382615 
L 138.588764 339.137364 
L 161.345185 337.089875 
L 184.101605 334.70565 
L 206.858026 324.290047 
L 229.614446 317.906514 
L 252.370866 308.693705 
L 275.127287 299.215769 
L 297.883707 289.446292 
L 320.640128 281.755768 
L 343.396548 274.036873 
L 366.152969 266.829884 
L 388.909389 260.378188 
L 411.66581 254.378474 
L 411.66581 110.731594 
L 411.66581 110.731594 
L 388.909389 125.28169 
L 366.152969 140.66343 
L 343.396548 157.042164 
L 320.640128 173.874145 
L 297.883707 191.178936 
L 275.127287 210.231427 
L 252.370866 228.721087 
L 229.614446 246.662632 
L 206.858026 262.215046 
L 184.101605 281.04222 
L 161.345185 291.550385 
L 138.588764 301.30086 
L 115.832344 307.02176 
L 93.075923 314.232637 
L 70.319503 323.555866 
z
" clip-path="url(#p646c3ad4d5)" style="fill: #db5f57; fill-opacity: 0.101961"/>
   </g>
   <g id="line2d_27">
    <path d="M 70.319503 340.87976 
L 93.075923 337.539766 
L 115.832344 337.382615 
L 138.588764 339.137364 
L 161.345185 337.089875 
L 184.101605 334.70565 
L 206.858026 324.290047 
L 229.614446 317.906514 
L 252.370866 308.693705 
L 275.127287 299.215769 
L 297.883707 289.446292 
L 320.640128 281.755768 
L 343.396548 274.036873 
L 366.152969 266.829884 
L 388.909389 260.378188 
L 411.66581 254.378474 
" clip-path="url(#p646c3ad4d5)" style="fill: none; stroke: #000000; stroke-opacity: 0; stroke-width: 0.886227; stroke-linejoin: miter"/>
   </g>
   <g id="line2d_28">
    <path d="M 70.319503 323.555866 
L 93.075923 314.232637 
L 115.832344 307.02176 
L 138.588764 301.30086 
L 161.345185 291.550385 
L 184.101605 281.04222 
L 206.858026 262.215046 
L 229.614446 246.662632 
L 252.370866 228.721087 
L 275.127287 210.231427 
L 297.883707 191.178936 
L 320.640128 173.874145 
L 343.396548 157.042164 
L 366.152969 140.66343 
L 388.909389 125.28169 
L 411.66581 110.731594 
" clip-path="url(#p646c3ad4d5)" style="fill: none; stroke: #000000; stroke-opacity: 0; stroke-width: 0.886227; stroke-linejoin: miter"/>
   </g>
   <g id="PolyCollection_2">
    <path d="M 70.319503 320.771258 
L 70.319503 338.095152 
L 93.075923 328.8483 
L 115.832344 320.487684 
L 138.588764 314.66067 
L 161.345185 306.174156 
L 184.101605 299.353749 
L 206.858026 286.373136 
L 229.614446 279.884571 
L 252.370866 272.039092 
L 275.127287 263.37959 
L 297.883707 253.500249 
L 320.640128 245.614314 
L 343.396548 237.605569 
L 366.152969 230.112188 
L 388.909389 223.489179 
L 411.66581 217.352804 
L 411.66581 73.705923 
L 411.66581 73.705923 
L 388.909389 88.392681 
L 366.152969 103.945734 
L 343.396548 120.610861 
L 320.640128 137.732691 
L 297.883707 155.232892 
L 275.127287 174.395247 
L 252.370866 192.066474 
L 229.614446 208.640689 
L 206.858026 224.298135 
L 184.101605 245.690318 
L 161.345185 260.634666 
L 138.588764 276.824166 
L 115.832344 290.126829 
L 93.075923 305.541171 
L 70.319503 320.771258 
z
" clip-path="url(#p646c3ad4d5)" style="fill: #91db57; fill-opacity: 0.101961"/>
   </g>
   <g id="line2d_29">
    <path d="M 70.319503 338.095152 
L 93.075923 328.8483 
L 115.832344 320.487684 
L 138.588764 314.66067 
L 161.345185 306.174156 
L 184.101605 299.353749 
L 206.858026 286.373136 
L 229.614446 279.884571 
L 252.370866 272.039092 
L 275.127287 263.37959 
L 297.883707 253.500249 
L 320.640128 245.614314 
L 343.396548 237.605569 
L 366.152969 230.112188 
L 388.909389 223.489179 
L 411.66581 217.352804 
" clip-path="url(#p646c3ad4d5)" style="fill: none; stroke: #000000; stroke-opacity: 0; stroke-width: 0.886227; stroke-linejoin: miter"/>
   </g>
   <g id="line2d_30">
    <path d="M 70.319503 320.771258 
L 93.075923 305.541171 
L 115.832344 290.126829 
L 138.588764 276.824166 
L 161.345185 260.634666 
L 184.101605 245.690318 
L 206.858026 224.298135 
L 229.614446 208.640689 
L 252.370866 192.066474 
L 275.127287 174.395247 
L 297.883707 155.232892 
L 320.640128 137.732691 
L 343.396548 120.610861 
L 366.152969 103.945734 
L 388.909389 88.392681 
L 411.66581 73.705923 
" clip-path="url(#p646c3ad4d5)" style="fill: none; stroke: #000000; stroke-opacity: 0; stroke-width: 0.886227; stroke-linejoin: miter"/>
   </g>
   <g id="PolyCollection_3">
    <path d="M 70.319503 319.396008 
L 70.319503 336.719902 
L 93.075923 324.394611 
L 115.832344 311.297133 
L 138.588764 300.152166 
L 161.345185 285.924122 
L 184.101605 273.457831 
L 206.858026 255.599319 
L 229.614446 245.51954 
L 252.370866 234.973897 
L 275.127287 224.323019 
L 297.883707 213.323982 
L 320.640128 204.89771 
L 343.396548 196.523448 
L 366.152969 188.704552 
L 388.909389 181.880417 
L 411.66581 175.579565 
L 411.66581 31.932685 
L 411.66581 31.932685 
L 388.909389 46.783919 
L 366.152969 62.538098 
L 343.396548 79.528739 
L 320.640128 97.016087 
L 297.883707 115.056625 
L 275.127287 135.338676 
L 252.370866 155.001279 
L 229.614446 174.275658 
L 206.858026 193.524319 
L 184.101605 219.7944 
L 161.345185 240.384632 
L 138.588764 262.315662 
L 115.832344 280.936278 
L 93.075923 301.087482 
L 70.319503 319.396008 
z
" clip-path="url(#p646c3ad4d5)" style="fill: #57d3db; fill-opacity: 0.101961"/>
   </g>
   <g id="line2d_31">
    <path d="M 70.319503 336.719902 
L 93.075923 324.394611 
L 115.832344 311.297133 
L 138.588764 300.152166 
L 161.345185 285.924122 
L 184.101605 273.457831 
L 206.858026 255.599319 
L 229.614446 245.51954 
L 252.370866 234.973897 
L 275.127287 224.323019 
L 297.883707 213.323982 
L 320.640128 204.89771 
L 343.396548 196.523448 
L 366.152969 188.704552 
L 388.909389 181.880417 
L 411.66581 175.579565 
" clip-path="url(#p646c3ad4d5)" style="fill: none; stroke: #000000; stroke-opacity: 0; stroke-width: 0.886227; stroke-linejoin: miter"/>
   </g>
   <g id="line2d_32">
    <path d="M 70.319503 319.396008 
L 93.075923 301.087482 
L 115.832344 280.936278 
L 138.588764 262.315662 
L 161.345185 240.384632 
L 184.101605 219.7944 
L 206.858026 193.524319 
L 229.614446 174.275658 
L 252.370866 155.001279 
L 275.127287 135.338676 
L 297.883707 115.056625 
L 320.640128 97.016087 
L 343.396548 79.528739 
L 366.152969 62.538098 
L 388.909389 46.783919 
L 411.66581 31.932685 
" clip-path="url(#p646c3ad4d5)" style="fill: none; stroke: #000000; stroke-opacity: 0; stroke-width: 0.886227; stroke-linejoin: miter"/>
   </g>
   <g id="PolyCollection_4">
    <path d="M 70.319503 326.607288 
L 70.319503 343.931183 
L 93.075923 345.838112 
L 115.832344 352.338051 
L 138.588764 360.652897 
L 161.345185 364.91888 
L 184.101605 368.186378 
L 206.858026 363.520304 
L 229.614446 362.37261 
L 252.370866 358.422083 
L 275.127287 352.308795 
L 297.883707 343.776331 
L 320.640128 336.677197 
L 343.396548 329.414215 
L 366.152969 322.616028 
L 388.909389 316.418544 
L 411.66581 310.617533 
L 411.66581 166.970653 
L 411.66581 166.970653 
L 388.909389 181.322046 
L 366.152969 196.449574 
L 343.396548 212.419506 
L 320.640128 228.795575 
L 297.883707 245.508974 
L 275.127287 263.324452 
L 252.370866 278.449464 
L 229.614446 291.128728 
L 206.858026 301.445303 
L 184.101605 314.522948 
L 161.345185 319.37939 
L 138.588764 322.816393 
L 115.832344 321.977196 
L 93.075923 322.530983 
L 70.319503 326.607288 
z
" clip-path="url(#p646c3ad4d5)" style="fill: #a157db; fill-opacity: 0.101961"/>
   </g>
   <g id="line2d_33">
    <path d="M 70.319503 343.931183 
L 93.075923 345.838112 
L 115.832344 352.338051 
L 138.588764 360.652897 
L 161.345185 364.91888 
L 184.101605 368.186378 
L 206.858026 363.520304 
L 229.614446 362.37261 
L 252.370866 358.422083 
L 275.127287 352.308795 
L 297.883707 343.776331 
L 320.640128 336.677197 
L 343.396548 329.414215 
L 366.152969 322.616028 
L 388.909389 316.418544 
L 411.66581 310.617533 
" clip-path="url(#p646c3ad4d5)" style="fill: none; stroke: #000000; stroke-opacity: 0; stroke-width: 0.886227; stroke-linejoin: miter"/>
   </g>
   <g id="line2d_34">
    <path d="M 70.319503 326.607288 
L 93.075923 322.530983 
L 115.832344 321.977196 
L 138.588764 322.816393 
L 161.345185 319.37939 
L 184.101605 314.522948 
L 206.858026 301.445303 
L 229.614446 291.128728 
L 252.370866 278.449464 
L 275.127287 263.324452 
L 297.883707 245.508974 
L 320.640128 228.795575 
L 343.396548 212.419506 
L 366.152969 196.449574 
L 388.909389 181.322046 
L 411.66581 166.970653 
" clip-path="url(#p646c3ad4d5)" style="fill: none; stroke: #000000; stroke-opacity: 0; stroke-width: 0.886227; stroke-linejoin: miter"/>
   </g>
   <g id="line2d_35">
    <path d="M 70.319503 332.217813 
L 93.075923 325.886202 
L 115.832344 322.202187 
L 138.588764 320.219112 
L 161.345185 314.32013 
L 184.101605 307.873935 
L 206.858026 293.252546 
L 229.614446 282.284573 
L 252.370866 268.707396 
L 275.127287 254.723598 
L 297.883707 240.312614 
L 320.640128 227.814956 
L 343.396548 215.539519 
L 366.152969 203.746657 
L 388.909389 192.829939 
L 411.66581 182.555034 
" clip-path="url(#p646c3ad4d5)" style="fill: none; stroke: #db5f57; stroke-width: 0.886227"/>
   </g>
   <g id="line2d_36">
    <path d="M 70.319503 329.433205 
L 93.075923 317.194735 
L 115.832344 305.307256 
L 138.588764 295.742418 
L 161.345185 283.404411 
L 184.101605 272.522034 
L 206.858026 255.335636 
L 229.614446 244.26263 
L 252.370866 232.052783 
L 275.127287 218.887418 
L 297.883707 204.366571 
L 320.640128 191.673502 
L 343.396548 179.108215 
L 366.152969 167.028961 
L 388.909389 155.94093 
L 411.66581 145.529364 
" clip-path="url(#p646c3ad4d5)" style="fill: none; stroke: #91db57; stroke-width: 0.886227"/>
   </g>
   <g id="line2d_37">
    <path d="M 70.319503 328.057955 
L 93.075923 312.741047 
L 115.832344 296.116705 
L 138.588764 281.233914 
L 161.345185 263.154377 
L 184.101605 246.626116 
L 206.858026 224.561819 
L 229.614446 209.897599 
L 252.370866 194.987588 
L 275.127287 179.830848 
L 297.883707 164.190304 
L 320.640128 150.956898 
L 343.396548 138.026094 
L 366.152969 125.621325 
L 388.909389 114.332168 
L 411.66581 103.756125 
" clip-path="url(#p646c3ad4d5)" style="fill: none; stroke: #57d3db; stroke-width: 0.886227"/>
   </g>
   <g id="line2d_38">
    <path d="M 70.319503 335.269235 
L 93.075923 334.184547 
L 115.832344 337.157623 
L 138.588764 341.734645 
L 161.345185 342.149135 
L 184.101605 341.354663 
L 206.858026 332.482803 
L 229.614446 326.750669 
L 252.370866 318.435773 
L 275.127287 307.816624 
L 297.883707 294.642653 
L 320.640128 282.736386 
L 343.396548 270.91686 
L 366.152969 259.532801 
L 388.909389 248.870295 
L 411.66581 238.794093 
" clip-path="url(#p646c3ad4d5)" style="fill: none; stroke: #a157db; stroke-width: 0.886227"/>
   </g>
  </g>
  <g id="text_10">
   <!-- year -->
   <g transform="translate(224.259453 418.800469) scale(0.15 -0.15)">
    <defs>
     <path id="DejaVuSans-79" d="M 2059 -325 
Q 1816 -950 1584 -1140 
Q 1353 -1331 966 -1331 
L 506 -1331 
L 506 -850 
L 844 -850 
Q 1081 -850 1212 -737 
Q 1344 -625 1503 -206 
L 1606 56 
L 191 3500 
L 800 3500 
L 1894 763 
L 2988 3500 
L 3597 3500 
L 2059 -325 
z
" transform="scale(0.015625)"/>
     <path id="DejaVuSans-65" d="M 3597 1894 
L 3597 1613 
L 953 1613 
Q 991 1019 1311 708 
Q 1631 397 2203 397 
Q 2534 397 2845 478 
Q 3156 559 3463 722 
L 3463 178 
Q 3153 47 2828 -22 
Q 2503 -91 2169 -91 
Q 1331 -91 842 396 
Q 353 884 353 1716 
Q 353 2575 817 3079 
Q 1281 3584 2069 3584 
Q 2775 3584 3186 3129 
Q 3597 2675 3597 1894 
z
M 3022 2063 
Q 3016 2534 2758 2815 
Q 2500 3097 2075 3097 
Q 1594 3097 1305 2825 
Q 1016 2553 972 2059 
L 3022 2063 
z
" transform="scale(0.015625)"/>
     <path id="DejaVuSans-61" d="M 2194 1759 
Q 1497 1759 1228 1600 
Q 959 1441 959 1056 
Q 959 750 1161 570 
Q 1363 391 1709 391 
Q 2188 391 2477 730 
Q 2766 1069 2766 1631 
L 2766 1759 
L 2194 1759 
z
M 3341 1997 
L 3341 0 
L 2766 0 
L 2766 531 
Q 2569 213 2275 61 
Q 1981 -91 1556 -91 
Q 1019 -91 701 211 
Q 384 513 384 1019 
Q 384 1609 779 1909 
Q 1175 2209 1959 2209 
L 2766 2209 
L 2766 2266 
Q 2766 2663 2505 2880 
Q 2244 3097 1772 3097 
Q 1472 3097 1187 3025 
Q 903 2953 641 2809 
L 641 3341 
Q 956 3463 1253 3523 
Q 1550 3584 1831 3584 
Q 2591 3584 2966 3190 
Q 3341 2797 3341 1997 
z
" transform="scale(0.015625)"/>
     <path id="DejaVuSans-72" d="M 2631 2963 
Q 2534 3019 2420 3045 
Q 2306 3072 2169 3072 
Q 1681 3072 1420 2755 
Q 1159 2438 1159 1844 
L 1159 0 
L 581 0 
L 581 3500 
L 1159 3500 
L 1159 2956 
Q 1341 3275 1631 3429 
Q 1922 3584 2338 3584 
Q 2397 3584 2469 3576 
Q 2541 3569 2628 3553 
L 2631 2963 
z
" transform="scale(0.015625)"/>
    </defs>
    <use xlink:href="#DejaVuSans-79"/>
    <use xlink:href="#DejaVuSans-65" x="59.179688"/>
    <use xlink:href="#DejaVuSans-61" x="120.703125"/>
    <use xlink:href="#DejaVuSans-72" x="181.982422"/>
   </g>
  </g>
  <g id="text_11">
   <!-- Production (milliom t) -->
   <g transform="translate(16.437656 281.0525) rotate(-90) scale(0.15 -0.15)">
    <defs>
     <path id="DejaVuSans-50" d="M 1259 4147 
L 1259 2394 
L 2053 2394 
Q 2494 2394 2734 2622 
Q 2975 2850 2975 3272 
Q 2975 3691 2734 3919 
Q 2494 4147 2053 4147 
L 1259 4147 
z
M 628 4666 
L 2053 4666 
Q 2838 4666 3239 4311 
Q 3641 3956 3641 3272 
Q 3641 2581 3239 2228 
Q 2838 1875 2053 1875 
L 1259 1875 
L 1259 0 
L 628 0 
L 628 4666 
z
" transform="scale(0.015625)"/>
     <path id="DejaVuSans-6f" d="M 1959 3097 
Q 1497 3097 1228 2736 
Q 959 2375 959 1747 
Q 959 1119 1226 758 
Q 1494 397 1959 397 
Q 2419 397 2687 759 
Q 2956 1122 2956 1747 
Q 2956 2369 2687 2733 
Q 2419 3097 1959 3097 
z
M 1959 3584 
Q 2709 3584 3137 3096 
Q 3566 2609 3566 1747 
Q 3566 888 3137 398 
Q 2709 -91 1959 -91 
Q 1206 -91 779 398 
Q 353 888 353 1747 
Q 353 2609 779 3096 
Q 1206 3584 1959 3584 
z
" transform="scale(0.015625)"/>
     <path id="DejaVuSans-64" d="M 2906 2969 
L 2906 4863 
L 3481 4863 
L 3481 0 
L 2906 0 
L 2906 525 
Q 2725 213 2448 61 
Q 2172 -91 1784 -91 
Q 1150 -91 751 415 
Q 353 922 353 1747 
Q 353 2572 751 3078 
Q 1150 3584 1784 3584 
Q 2172 3584 2448 3432 
Q 2725 3281 2906 2969 
z
M 947 1747 
Q 947 1113 1208 752 
Q 1469 391 1925 391 
Q 2381 391 2643 752 
Q 2906 1113 2906 1747 
Q 2906 2381 2643 2742 
Q 2381 3103 1925 3103 
Q 1469 3103 1208 2742 
Q 947 2381 947 1747 
z
" transform="scale(0.015625)"/>
     <path id="DejaVuSans-75" d="M 544 1381 
L 544 3500 
L 1119 3500 
L 1119 1403 
Q 1119 906 1312 657 
Q 1506 409 1894 409 
Q 2359 409 2629 706 
Q 2900 1003 2900 1516 
L 2900 3500 
L 3475 3500 
L 3475 0 
L 2900 0 
L 2900 538 
Q 2691 219 2414 64 
Q 2138 -91 1772 -91 
Q 1169 -91 856 284 
Q 544 659 544 1381 
z
M 1991 3584 
L 1991 3584 
z
" transform="scale(0.015625)"/>
     <path id="DejaVuSans-63" d="M 3122 3366 
L 3122 2828 
Q 2878 2963 2633 3030 
Q 2388 3097 2138 3097 
Q 1578 3097 1268 2742 
Q 959 2388 959 1747 
Q 959 1106 1268 751 
Q 1578 397 2138 397 
Q 2388 397 2633 464 
Q 2878 531 3122 666 
L 3122 134 
Q 2881 22 2623 -34 
Q 2366 -91 2075 -91 
Q 1284 -91 818 406 
Q 353 903 353 1747 
Q 353 2603 823 3093 
Q 1294 3584 2113 3584 
Q 2378 3584 2631 3529 
Q 2884 3475 3122 3366 
z
" transform="scale(0.015625)"/>
     <path id="DejaVuSans-74" d="M 1172 4494 
L 1172 3500 
L 2356 3500 
L 2356 3053 
L 1172 3053 
L 1172 1153 
Q 1172 725 1289 603 
Q 1406 481 1766 481 
L 2356 481 
L 2356 0 
L 1766 0 
Q 1100 0 847 248 
Q 594 497 594 1153 
L 594 3053 
L 172 3053 
L 172 3500 
L 594 3500 
L 594 4494 
L 1172 4494 
z
" transform="scale(0.015625)"/>
     <path id="DejaVuSans-69" d="M 603 3500 
L 1178 3500 
L 1178 0 
L 603 0 
L 603 3500 
z
M 603 4863 
L 1178 4863 
L 1178 4134 
L 603 4134 
L 603 4863 
z
" transform="scale(0.015625)"/>
     <path id="DejaVuSans-6e" d="M 3513 2113 
L 3513 0 
L 2938 0 
L 2938 2094 
Q 2938 2591 2744 2837 
Q 2550 3084 2163 3084 
Q 1697 3084 1428 2787 
Q 1159 2491 1159 1978 
L 1159 0 
L 581 0 
L 581 3500 
L 1159 3500 
L 1159 2956 
Q 1366 3272 1645 3428 
Q 1925 3584 2291 3584 
Q 2894 3584 3203 3211 
Q 3513 2838 3513 2113 
z
" transform="scale(0.015625)"/>
     <path id="DejaVuSans-20" transform="scale(0.015625)"/>
     <path id="DejaVuSans-28" d="M 1984 4856 
Q 1566 4138 1362 3434 
Q 1159 2731 1159 2009 
Q 1159 1288 1364 580 
Q 1569 -128 1984 -844 
L 1484 -844 
Q 1016 -109 783 600 
Q 550 1309 550 2009 
Q 550 2706 781 3412 
Q 1013 4119 1484 4856 
L 1984 4856 
z
" transform="scale(0.015625)"/>
     <path id="DejaVuSans-6d" d="M 3328 2828 
Q 3544 3216 3844 3400 
Q 4144 3584 4550 3584 
Q 5097 3584 5394 3201 
Q 5691 2819 5691 2113 
L 5691 0 
L 5113 0 
L 5113 2094 
Q 5113 2597 4934 2840 
Q 4756 3084 4391 3084 
Q 3944 3084 3684 2787 
Q 3425 2491 3425 1978 
L 3425 0 
L 2847 0 
L 2847 2094 
Q 2847 2600 2669 2842 
Q 2491 3084 2119 3084 
Q 1678 3084 1418 2786 
Q 1159 2488 1159 1978 
L 1159 0 
L 581 0 
L 581 3500 
L 1159 3500 
L 1159 2956 
Q 1356 3278 1631 3431 
Q 1906 3584 2284 3584 
Q 2666 3584 2933 3390 
Q 3200 3197 3328 2828 
z
" transform="scale(0.015625)"/>
     <path id="DejaVuSans-6c" d="M 603 4863 
L 1178 4863 
L 1178 0 
L 603 0 
L 603 4863 
z
" transform="scale(0.015625)"/>
     <path id="DejaVuSans-29" d="M 513 4856 
L 1013 4856 
Q 1481 4119 1714 3412 
Q 1947 2706 1947 2009 
Q 1947 1309 1714 600 
Q 1481 -109 1013 -844 
L 513 -844 
Q 928 -128 1133 580 
Q 1338 1288 1338 2009 
Q 1338 2731 1133 3434 
Q 928 4138 513 4856 
z
" transform="scale(0.015625)"/>
    </defs>
    <use xlink:href="#DejaVuSans-50"/>
    <use xlink:href="#DejaVuSans-72" x="58.552734"/>
    <use xlink:href="#DejaVuSans-6f" x="97.416016"/>
    <use xlink:href="#DejaVuSans-64" x="158.597656"/>
    <use xlink:href="#DejaVuSans-75" x="222.074219"/>
    <use xlink:href="#DejaVuSans-63" x="285.453125"/>
    <use xlink:href="#DejaVuSans-74" x="340.433594"/>
    <use xlink:href="#DejaVuSans-69" x="379.642578"/>
    <use xlink:href="#DejaVuSans-6f" x="407.425781"/>
    <use xlink:href="#DejaVuSans-6e" x="468.607422"/>
    <use xlink:href="#DejaVuSans-20" x="531.986328"/>
    <use xlink:href="#DejaVuSans-28" x="563.773438"/>
    <use xlink:href="#DejaVuSans-6d" x="602.787109"/>
    <use xlink:href="#DejaVuSans-69" x="700.199219"/>
    <use xlink:href="#DejaVuSans-6c" x="727.982422"/>
    <use xlink:href="#DejaVuSans-6c" x="755.765625"/>
    <use xlink:href="#DejaVuSans-69" x="783.548828"/>
    <use xlink:href="#DejaVuSans-6f" x="811.332031"/>
    <use xlink:href="#DejaVuSans-6d" x="872.513672"/>
    <use xlink:href="#DejaVuSans-20" x="969.925781"/>
    <use xlink:href="#DejaVuSans-74" x="1001.712891"/>
    <use xlink:href="#DejaVuSans-29" x="1040.921875"/>
   </g>
  </g>
  <g id="patch_3">
   <path d="M 443.853125 256.238125 
L 498.96 256.238125 
L 498.96 143.880937 
L 443.853125 143.880937 
z
" style="fill: #ffffff"/>
  </g>
  <g id="text_12">
   <!-- SSP -->
   <g transform="translate(444.053125 159.617656) scale(0.15 -0.15)">
    <defs>
     <path id="DejaVuSans-53" d="M 3425 4513 
L 3425 3897 
Q 3066 4069 2747 4153 
Q 2428 4238 2131 4238 
Q 1616 4238 1336 4038 
Q 1056 3838 1056 3469 
Q 1056 3159 1242 3001 
Q 1428 2844 1947 2747 
L 2328 2669 
Q 3034 2534 3370 2195 
Q 3706 1856 3706 1288 
Q 3706 609 3251 259 
Q 2797 -91 1919 -91 
Q 1588 -91 1214 -16 
Q 841 59 441 206 
L 441 856 
Q 825 641 1194 531 
Q 1563 422 1919 422 
Q 2459 422 2753 634 
Q 3047 847 3047 1241 
Q 3047 1584 2836 1778 
Q 2625 1972 2144 2069 
L 1759 2144 
Q 1053 2284 737 2584 
Q 422 2884 422 3419 
Q 422 4038 858 4394 
Q 1294 4750 2059 4750 
Q 2388 4750 2728 4690 
Q 3069 4631 3425 4513 
z
" transform="scale(0.015625)"/>
    </defs>
    <use xlink:href="#DejaVuSans-53"/>
    <use xlink:href="#DejaVuSans-53" x="63.476562"/>
    <use xlink:href="#DejaVuSans-50" x="126.953125"/>
   </g>
  </g>
  <g id="patch_4">
   <path d="M 444.053125 185.238125 
L 465.653125 185.238125 
L 465.653125 163.638125 
L 444.053125 163.638125 
z
" clip-path="url(#pec11ba7a0c)" style="fill: #f2f2f2; stroke: #cccccc; stroke-linejoin: miter"/>
  </g>
  <g id="patch_5">
   <path d="M 444.496238 184.795012 
L 465.210012 184.795012 
L 465.210012 164.081238 
L 444.496238 164.081238 
z
" clip-path="url(#pec11ba7a0c)" style="fill: #db5f57; fill-opacity: 0.101961"/>
  </g>
  <g id="line2d_39">
   <path d="M 444.053125 174.438125 
L 465.653125 174.438125 
" clip-path="url(#pec11ba7a0c)" style="fill: none; stroke: #db5f57; stroke-width: 0.886227"/>
  </g>
  <g id="text_13">
   <!-- SSP1 -->
   <g transform="translate(468.653125 177.749375) scale(0.12 -0.12)">
    <use xlink:href="#DejaVuSans-53"/>
    <use xlink:href="#DejaVuSans-53" x="63.476562"/>
    <use xlink:href="#DejaVuSans-50" x="126.953125"/>
    <use xlink:href="#DejaVuSans-31" x="187.255859"/>
   </g>
  </g>
  <g id="patch_6">
   <path d="M 444.053125 208.838125 
L 465.653125 208.838125 
L 465.653125 187.238125 
L 444.053125 187.238125 
z
" clip-path="url(#p4f0ee36fb3)" style="fill: #f2f2f2; stroke: #cccccc; stroke-linejoin: miter"/>
  </g>
  <g id="patch_7">
   <path d="M 444.496238 208.395012 
L 465.210012 208.395012 
L 465.210012 187.681238 
L 444.496238 187.681238 
z
" clip-path="url(#p4f0ee36fb3)" style="fill: #91db57; fill-opacity: 0.101961"/>
  </g>
  <g id="line2d_40">
   <path d="M 444.053125 198.038125 
L 465.653125 198.038125 
" clip-path="url(#p4f0ee36fb3)" style="fill: none; stroke: #91db57; stroke-width: 0.886227"/>
  </g>
  <g id="text_14">
   <!-- SSP2 -->
   <g transform="translate(468.653125 201.349375) scale(0.12 -0.12)">
    <use xlink:href="#DejaVuSans-53"/>
    <use xlink:href="#DejaVuSans-53" x="63.476562"/>
    <use xlink:href="#DejaVuSans-50" x="126.953125"/>
    <use xlink:href="#DejaVuSans-32" x="187.255859"/>
   </g>
  </g>
  <g id="patch_8">
   <path d="M 444.053125 232.438125 
L 465.653125 232.438125 
L 465.653125 210.838125 
L 444.053125 210.838125 
z
" clip-path="url(#pabe38e088f)" style="fill: #f2f2f2; stroke: #cccccc; stroke-linejoin: miter"/>
  </g>
  <g id="patch_9">
   <path d="M 444.496238 231.995012 
L 465.210012 231.995012 
L 465.210012 211.281238 
L 444.496238 211.281238 
z
" clip-path="url(#pabe38e088f)" style="fill: #57d3db; fill-opacity: 0.101961"/>
  </g>
  <g id="line2d_41">
   <path d="M 444.053125 221.638125 
L 465.653125 221.638125 
" clip-path="url(#pabe38e088f)" style="fill: none; stroke: #57d3db; stroke-width: 0.886227"/>
  </g>
  <g id="text_15">
   <!-- SSP3 -->
   <g transform="translate(468.653125 224.949375) scale(0.12 -0.12)">
    <use xlink:href="#DejaVuSans-53"/>
    <use xlink:href="#DejaVuSans-53" x="63.476562"/>
    <use xlink:href="#DejaVuSans-50" x="126.953125"/>
    <use xlink:href="#DejaVuSans-33" x="187.255859"/>
   </g>
  </g>
  <g id="patch_10">
   <path d="M 444.053125 256.038125 
L 465.653125 256.038125 
L 465.653125 234.438125 
L 444.053125 234.438125 
z
" clip-path="url(#p37752000c0)" style="fill: #f2f2f2; stroke: #cccccc; stroke-linejoin: miter"/>
  </g>
  <g id="patch_11">
   <path d="M 444.496238 255.595012 
L 465.210012 255.595012 
L 465.210012 234.881238 
L 444.496238 234.881238 
z
" clip-path="url(#p37752000c0)" style="fill: #a157db; fill-opacity: 0.101961"/>
  </g>
  <g id="line2d_42">
   <path d="M 444.053125 245.238125 
L 465.653125 245.238125 
" clip-path="url(#p37752000c0)" style="fill: none; stroke: #a157db; stroke-width: 0.886227"/>
  </g>
  <g id="text_16">
   <!-- SSP5 -->
   <g transform="translate(468.653125 248.549375) scale(0.12 -0.12)">
    <use xlink:href="#DejaVuSans-53"/>
    <use xlink:href="#DejaVuSans-53" x="63.476562"/>
    <use xlink:href="#DejaVuSans-50" x="126.953125"/>
    <use xlink:href="#DejaVuSans-35" x="187.255859"/>
   </g>
  </g>
 </g>
 <defs>
  <clipPath id="p646c3ad4d5">
   <rect x="53.252188" y="15.12" width="375.480937" height="369.879062"/>
  </clipPath>
  <clipPath id="pec11ba7a0c">
   <path d="M 444.053125 185.238125 
L 444.053125 163.638125 
L 465.653125 163.638125 
L 465.653125 185.238125 
"/>
  </clipPath>
  <clipPath id="p4f0ee36fb3">
   <path d="M 444.053125 208.838125 
L 444.053125 187.238125 
L 465.653125 187.238125 
L 465.653125 208.838125 
"/>
  </clipPath>
  <clipPath id="pabe38e088f">
   <path d="M 444.053125 232.438125 
L 444.053125 210.838125 
L 465.653125 210.838125 
L 465.653125 232.438125 
"/>
  </clipPath>
  <clipPath id="p37752000c0">
   <path d="M 444.053125 256.038125 
L 444.053125 234.438125 
L 465.653125 234.438125 
L 465.653125 256.038125 
"/>
  </clipPath>
 </defs>
</svg>
