<?xml version="1.0" encoding="utf-8" standalone="no"?>
<!DOCTYPE svg PUBLIC "-//W3C//DTD SVG 1.1//EN"
  "http://www.w3.org/Graphics/SVG/1.1/DTD/svg11.dtd">
<svg xmlns:xlink="http://www.w3.org/1999/xlink" width="576pt" height="432pt" viewBox="0 0 576 432" xmlns="http://www.w3.org/2000/svg" version="1.1">
 <metadata>
  <rdf:RDF xmlns:dc="http://purl.org/dc/elements/1.1/" xmlns:cc="http://creativecommons.org/ns#" xmlns:rdf="http://www.w3.org/1999/02/22-rdf-syntax-ns#">
   <cc:Work>
    <dc:type rdf:resource="http://purl.org/dc/dcmitype/StillImage"/>
    <dc:date>2023-06-19T16:23:07.361901</dc:date>
    <dc:format>image/svg+xml</dc:format>
    <dc:creator>
     <cc:Agent>
      <dc:title>Matplotlib v3.7.1, https://matplotlib.org/</dc:title>
     </cc:Agent>
    </dc:creator>
   </cc:Work>
  </rdf:RDF>
 </metadata>
 <defs>
  <style type="text/css">*{stroke-linejoin: round; stroke-linecap: butt}</style>
 </defs>
 <g id="figure_1">
  <g id="patch_1">
   <path d="M 0 432 
L 576 432 
L 576 0 
L 0 0 
z
" style="fill: #ffffff; stroke: #ffffff; stroke-linejoin: miter"/>
  </g>
  <g id="axes_1">
   <g id="patch_2">
    <path d="M 54.692188 382.839063 
L 473.298125 382.839063 
L 473.298125 17.28 
L 54.692188 17.28 
z
" style="fill: #ffffff; stroke: #7f7f7f; stroke-linejoin: miter"/>
   </g>
   <g id="matplotlib.axis_1">
    <g id="xtick_1">
     <g id="line2d_1">
      <path d="M 57.863445 382.839063 
L 57.863445 17.28 
" clip-path="url(#pfb5ae67d7c)" style="fill: none; stroke: #e5e5e5; stroke-width: 0.8"/>
     </g>
     <g id="line2d_2">
      <path d="M 57.863445 382.839063 
" style="fill: none; stroke: #000000; stroke-width: 1.5"/>
      <defs>
       <path id="maf3387640b" d="M 0 0 
L 0 3.75 
" style="stroke: #333333"/>
      </defs>
      <g>
       <use xlink:href="#maf3387640b" x="57.863445" y="382.839063" style="stroke: #333333"/>
      </g>
     </g>
     <g id="text_1">
      <!-- 1975 -->
      <g style="fill: #4d4d4d" transform="translate(42.593445 397.707187) scale(0.12 -0.12)">
       <defs>
        <path id="DejaVuSans-31" d="M 794 531 
L 1825 531 
L 1825 4091 
L 703 3866 
L 703 4441 
L 1819 4666 
L 2450 4666 
L 2450 531 
L 3481 531 
L 3481 0 
L 794 0 
L 794 531 
z
" transform="scale(0.015625)"/>
        <path id="DejaVuSans-39" d="M 703 97 
L 703 672 
Q 941 559 1184 500 
Q 1428 441 1663 441 
Q 2288 441 2617 861 
Q 2947 1281 2994 2138 
Q 2813 1869 2534 1725 
Q 2256 1581 1919 1581 
Q 1219 1581 811 2004 
Q 403 2428 403 3163 
Q 403 3881 828 4315 
Q 1253 4750 1959 4750 
Q 2769 4750 3195 4129 
Q 3622 3509 3622 2328 
Q 3622 1225 3098 567 
Q 2575 -91 1691 -91 
Q 1453 -91 1209 -44 
Q 966 3 703 97 
z
M 1959 2075 
Q 2384 2075 2632 2365 
Q 2881 2656 2881 3163 
Q 2881 3666 2632 3958 
Q 2384 4250 1959 4250 
Q 1534 4250 1286 3958 
Q 1038 3666 1038 3163 
Q 1038 2656 1286 2365 
Q 1534 2075 1959 2075 
z
" transform="scale(0.015625)"/>
        <path id="DejaVuSans-37" d="M 525 4666 
L 3525 4666 
L 3525 4397 
L 1831 0 
L 1172 0 
L 2766 4134 
L 525 4134 
L 525 4666 
z
" transform="scale(0.015625)"/>
        <path id="DejaVuSans-35" d="M 691 4666 
L 3169 4666 
L 3169 4134 
L 1269 4134 
L 1269 2991 
Q 1406 3038 1543 3061 
Q 1681 3084 1819 3084 
Q 2600 3084 3056 2656 
Q 3513 2228 3513 1497 
Q 3513 744 3044 326 
Q 2575 -91 1722 -91 
Q 1428 -91 1123 -41 
Q 819 9 494 109 
L 494 744 
Q 775 591 1075 516 
Q 1375 441 1709 441 
Q 2250 441 2565 725 
Q 2881 1009 2881 1497 
Q 2881 1984 2565 2268 
Q 2250 2553 1709 2553 
Q 1456 2553 1204 2497 
Q 953 2441 691 2322 
L 691 4666 
z
" transform="scale(0.015625)"/>
       </defs>
       <use xlink:href="#DejaVuSans-31"/>
       <use xlink:href="#DejaVuSans-39" x="63.623047"/>
       <use xlink:href="#DejaVuSans-37" x="127.246094"/>
       <use xlink:href="#DejaVuSans-35" x="190.869141"/>
      </g>
     </g>
    </g>
    <g id="xtick_2">
     <g id="line2d_3">
      <path d="M 137.144872 382.839063 
L 137.144872 17.28 
" clip-path="url(#pfb5ae67d7c)" style="fill: none; stroke: #e5e5e5; stroke-width: 0.8"/>
     </g>
     <g id="line2d_4">
      <path d="M 137.144872 382.839063 
" style="fill: none; stroke: #000000; stroke-width: 1.5"/>
      <g>
       <use xlink:href="#maf3387640b" x="137.144872" y="382.839063" style="stroke: #333333"/>
      </g>
     </g>
     <g id="text_2">
      <!-- 2000 -->
      <g style="fill: #4d4d4d" transform="translate(121.874872 397.707187) scale(0.12 -0.12)">
       <defs>
        <path id="DejaVuSans-32" d="M 1228 531 
L 3431 531 
L 3431 0 
L 469 0 
L 469 531 
Q 828 903 1448 1529 
Q 2069 2156 2228 2338 
Q 2531 2678 2651 2914 
Q 2772 3150 2772 3378 
Q 2772 3750 2511 3984 
Q 2250 4219 1831 4219 
Q 1534 4219 1204 4116 
Q 875 4013 500 3803 
L 500 4441 
Q 881 4594 1212 4672 
Q 1544 4750 1819 4750 
Q 2544 4750 2975 4387 
Q 3406 4025 3406 3419 
Q 3406 3131 3298 2873 
Q 3191 2616 2906 2266 
Q 2828 2175 2409 1742 
Q 1991 1309 1228 531 
z
" transform="scale(0.015625)"/>
        <path id="DejaVuSans-30" d="M 2034 4250 
Q 1547 4250 1301 3770 
Q 1056 3291 1056 2328 
Q 1056 1369 1301 889 
Q 1547 409 2034 409 
Q 2525 409 2770 889 
Q 3016 1369 3016 2328 
Q 3016 3291 2770 3770 
Q 2525 4250 2034 4250 
z
M 2034 4750 
Q 2819 4750 3233 4129 
Q 3647 3509 3647 2328 
Q 3647 1150 3233 529 
Q 2819 -91 2034 -91 
Q 1250 -91 836 529 
Q 422 1150 422 2328 
Q 422 3509 836 4129 
Q 1250 4750 2034 4750 
z
" transform="scale(0.015625)"/>
       </defs>
       <use xlink:href="#DejaVuSans-32"/>
       <use xlink:href="#DejaVuSans-30" x="63.623047"/>
       <use xlink:href="#DejaVuSans-30" x="127.246094"/>
       <use xlink:href="#DejaVuSans-30" x="190.869141"/>
      </g>
     </g>
    </g>
    <g id="xtick_3">
     <g id="line2d_5">
      <path d="M 216.4263 382.839063 
L 216.4263 17.28 
" clip-path="url(#pfb5ae67d7c)" style="fill: none; stroke: #e5e5e5; stroke-width: 0.8"/>
     </g>
     <g id="line2d_6">
      <path d="M 216.4263 382.839063 
" style="fill: none; stroke: #000000; stroke-width: 1.5"/>
      <g>
       <use xlink:href="#maf3387640b" x="216.4263" y="382.839063" style="stroke: #333333"/>
      </g>
     </g>
     <g id="text_3">
      <!-- 2025 -->
      <g style="fill: #4d4d4d" transform="translate(201.1563 397.707187) scale(0.12 -0.12)">
       <use xlink:href="#DejaVuSans-32"/>
       <use xlink:href="#DejaVuSans-30" x="63.623047"/>
       <use xlink:href="#DejaVuSans-32" x="127.246094"/>
       <use xlink:href="#DejaVuSans-35" x="190.869141"/>
      </g>
     </g>
    </g>
    <g id="xtick_4">
     <g id="line2d_7">
      <path d="M 295.707727 382.839063 
L 295.707727 17.28 
" clip-path="url(#pfb5ae67d7c)" style="fill: none; stroke: #e5e5e5; stroke-width: 0.8"/>
     </g>
     <g id="line2d_8">
      <path d="M 295.707727 382.839063 
" style="fill: none; stroke: #000000; stroke-width: 1.5"/>
      <g>
       <use xlink:href="#maf3387640b" x="295.707727" y="382.839063" style="stroke: #333333"/>
      </g>
     </g>
     <g id="text_4">
      <!-- 2050 -->
      <g style="fill: #4d4d4d" transform="translate(280.437727 397.707187) scale(0.12 -0.12)">
       <use xlink:href="#DejaVuSans-32"/>
       <use xlink:href="#DejaVuSans-30" x="63.623047"/>
       <use xlink:href="#DejaVuSans-35" x="127.246094"/>
       <use xlink:href="#DejaVuSans-30" x="190.869141"/>
      </g>
     </g>
    </g>
    <g id="xtick_5">
     <g id="line2d_9">
      <path d="M 374.989155 382.839063 
L 374.989155 17.28 
" clip-path="url(#pfb5ae67d7c)" style="fill: none; stroke: #e5e5e5; stroke-width: 0.8"/>
     </g>
     <g id="line2d_10">
      <path d="M 374.989155 382.839063 
" style="fill: none; stroke: #000000; stroke-width: 1.5"/>
      <g>
       <use xlink:href="#maf3387640b" x="374.989155" y="382.839063" style="stroke: #333333"/>
      </g>
     </g>
     <g id="text_5">
      <!-- 2075 -->
      <g style="fill: #4d4d4d" transform="translate(359.719155 397.707187) scale(0.12 -0.12)">
       <use xlink:href="#DejaVuSans-32"/>
       <use xlink:href="#DejaVuSans-30" x="63.623047"/>
       <use xlink:href="#DejaVuSans-37" x="127.246094"/>
       <use xlink:href="#DejaVuSans-35" x="190.869141"/>
      </g>
     </g>
    </g>
    <g id="xtick_6">
     <g id="line2d_11">
      <path d="M 454.270582 382.839063 
L 454.270582 17.28 
" clip-path="url(#pfb5ae67d7c)" style="fill: none; stroke: #e5e5e5; stroke-width: 0.8"/>
     </g>
     <g id="line2d_12">
      <path d="M 454.270582 382.839063 
" style="fill: none; stroke: #000000; stroke-width: 1.5"/>
      <g>
       <use xlink:href="#maf3387640b" x="454.270582" y="382.839063" style="stroke: #333333"/>
      </g>
     </g>
     <g id="text_6">
      <!-- 2100 -->
      <g style="fill: #4d4d4d" transform="translate(439.000582 397.707187) scale(0.12 -0.12)">
       <use xlink:href="#DejaVuSans-32"/>
       <use xlink:href="#DejaVuSans-31" x="63.623047"/>
       <use xlink:href="#DejaVuSans-30" x="127.246094"/>
       <use xlink:href="#DejaVuSans-30" x="190.869141"/>
      </g>
     </g>
    </g>
    <g id="xtick_7">
     <g id="line2d_13">
      <path d="M 97.504158 382.839063 
L 97.504158 17.28 
" clip-path="url(#pfb5ae67d7c)" style="fill: none; stroke: #fafafa"/>
     </g>
    </g>
    <g id="xtick_8">
     <g id="line2d_14">
      <path d="M 176.785586 382.839063 
L 176.785586 17.28 
" clip-path="url(#pfb5ae67d7c)" style="fill: none; stroke: #fafafa"/>
     </g>
    </g>
    <g id="xtick_9">
     <g id="line2d_15">
      <path d="M 256.067013 382.839063 
L 256.067013 17.28 
" clip-path="url(#pfb5ae67d7c)" style="fill: none; stroke: #fafafa"/>
     </g>
    </g>
    <g id="xtick_10">
     <g id="line2d_16">
      <path d="M 335.348441 382.839063 
L 335.348441 17.28 
" clip-path="url(#pfb5ae67d7c)" style="fill: none; stroke: #fafafa"/>
     </g>
    </g>
    <g id="xtick_11">
     <g id="line2d_17">
      <path d="M 414.629869 382.839063 
L 414.629869 17.28 
" clip-path="url(#pfb5ae67d7c)" style="fill: none; stroke: #fafafa"/>
     </g>
    </g>
   </g>
   <g id="matplotlib.axis_2">
    <g id="ytick_1">
     <g id="line2d_18">
      <path d="M 54.692188 366.222741 
L 473.298125 366.222741 
" clip-path="url(#pfb5ae67d7c)" style="fill: none; stroke: #e5e5e5; stroke-width: 0.8"/>
     </g>
     <g id="line2d_19">
      <path d="M 54.692188 366.222741 
" style="fill: none; stroke: #000000; stroke-width: 1.5"/>
      <defs>
       <path id="m4b8f310e41" d="M 0 0 
L -3.75 0 
" style="stroke: #333333"/>
      </defs>
      <g>
       <use xlink:href="#m4b8f310e41" x="54.692188" y="366.222741" style="stroke: #333333"/>
      </g>
     </g>
     <g id="text_7">
      <!-- 0 -->
      <g style="fill: #4d4d4d" transform="translate(41.307188 369.533991) scale(0.12 -0.12)">
       <use xlink:href="#DejaVuSans-30"/>
      </g>
     </g>
    </g>
    <g id="ytick_2">
     <g id="line2d_20">
      <path d="M 54.692188 292.372426 
L 473.298125 292.372426 
" clip-path="url(#pfb5ae67d7c)" style="fill: none; stroke: #e5e5e5; stroke-width: 0.8"/>
     </g>
     <g id="line2d_21">
      <path d="M 54.692188 292.372426 
" style="fill: none; stroke: #000000; stroke-width: 1.5"/>
      <g>
       <use xlink:href="#m4b8f310e41" x="54.692188" y="292.372426" style="stroke: #333333"/>
      </g>
     </g>
     <g id="text_8">
      <!-- 100 -->
      <g style="fill: #4d4d4d" transform="translate(26.037188 295.683676) scale(0.12 -0.12)">
       <use xlink:href="#DejaVuSans-31"/>
       <use xlink:href="#DejaVuSans-30" x="63.623047"/>
       <use xlink:href="#DejaVuSans-30" x="127.246094"/>
      </g>
     </g>
    </g>
    <g id="ytick_3">
     <g id="line2d_22">
      <path d="M 54.692188 218.52211 
L 473.298125 218.52211 
" clip-path="url(#pfb5ae67d7c)" style="fill: none; stroke: #e5e5e5; stroke-width: 0.8"/>
     </g>
     <g id="line2d_23">
      <path d="M 54.692188 218.52211 
" style="fill: none; stroke: #000000; stroke-width: 1.5"/>
      <g>
       <use xlink:href="#m4b8f310e41" x="54.692188" y="218.52211" style="stroke: #333333"/>
      </g>
     </g>
     <g id="text_9">
      <!-- 200 -->
      <g style="fill: #4d4d4d" transform="translate(26.037188 221.83336) scale(0.12 -0.12)">
       <use xlink:href="#DejaVuSans-32"/>
       <use xlink:href="#DejaVuSans-30" x="63.623047"/>
       <use xlink:href="#DejaVuSans-30" x="127.246094"/>
      </g>
     </g>
    </g>
    <g id="ytick_4">
     <g id="line2d_24">
      <path d="M 54.692188 144.671795 
L 473.298125 144.671795 
" clip-path="url(#pfb5ae67d7c)" style="fill: none; stroke: #e5e5e5; stroke-width: 0.8"/>
     </g>
     <g id="line2d_25">
      <path d="M 54.692188 144.671795 
" style="fill: none; stroke: #000000; stroke-width: 1.5"/>
      <g>
       <use xlink:href="#m4b8f310e41" x="54.692188" y="144.671795" style="stroke: #333333"/>
      </g>
     </g>
     <g id="text_10">
      <!-- 300 -->
      <g style="fill: #4d4d4d" transform="translate(26.037188 147.983045) scale(0.12 -0.12)">
       <defs>
        <path id="DejaVuSans-33" d="M 2597 2516 
Q 3050 2419 3304 2112 
Q 3559 1806 3559 1356 
Q 3559 666 3084 287 
Q 2609 -91 1734 -91 
Q 1441 -91 1130 -33 
Q 819 25 488 141 
L 488 750 
Q 750 597 1062 519 
Q 1375 441 1716 441 
Q 2309 441 2620 675 
Q 2931 909 2931 1356 
Q 2931 1769 2642 2001 
Q 2353 2234 1838 2234 
L 1294 2234 
L 1294 2753 
L 1863 2753 
Q 2328 2753 2575 2939 
Q 2822 3125 2822 3475 
Q 2822 3834 2567 4026 
Q 2313 4219 1838 4219 
Q 1578 4219 1281 4162 
Q 984 4106 628 3988 
L 628 4550 
Q 988 4650 1302 4700 
Q 1616 4750 1894 4750 
Q 2613 4750 3031 4423 
Q 3450 4097 3450 3541 
Q 3450 3153 3228 2886 
Q 3006 2619 2597 2516 
z
" transform="scale(0.015625)"/>
       </defs>
       <use xlink:href="#DejaVuSans-33"/>
       <use xlink:href="#DejaVuSans-30" x="63.623047"/>
       <use xlink:href="#DejaVuSans-30" x="127.246094"/>
      </g>
     </g>
    </g>
    <g id="ytick_5">
     <g id="line2d_26">
      <path d="M 54.692188 70.821479 
L 473.298125 70.821479 
" clip-path="url(#pfb5ae67d7c)" style="fill: none; stroke: #e5e5e5; stroke-width: 0.8"/>
     </g>
     <g id="line2d_27">
      <path d="M 54.692188 70.821479 
" style="fill: none; stroke: #000000; stroke-width: 1.5"/>
      <g>
       <use xlink:href="#m4b8f310e41" x="54.692188" y="70.821479" style="stroke: #333333"/>
      </g>
     </g>
     <g id="text_11">
      <!-- 400 -->
      <g style="fill: #4d4d4d" transform="translate(26.037188 74.132729) scale(0.12 -0.12)">
       <defs>
        <path id="DejaVuSans-34" d="M 2419 4116 
L 825 1625 
L 2419 1625 
L 2419 4116 
z
M 2253 4666 
L 3047 4666 
L 3047 1625 
L 3713 1625 
L 3713 1100 
L 3047 1100 
L 3047 0 
L 2419 0 
L 2419 1100 
L 313 1100 
L 313 1709 
L 2253 4666 
z
" transform="scale(0.015625)"/>
       </defs>
       <use xlink:href="#DejaVuSans-34"/>
       <use xlink:href="#DejaVuSans-30" x="63.623047"/>
       <use xlink:href="#DejaVuSans-30" x="127.246094"/>
      </g>
     </g>
    </g>
    <g id="ytick_6">
     <g id="line2d_28">
      <path d="M 54.692188 329.297584 
L 473.298125 329.297584 
" clip-path="url(#pfb5ae67d7c)" style="fill: none; stroke: #fafafa"/>
     </g>
    </g>
    <g id="ytick_7">
     <g id="line2d_29">
      <path d="M 54.692188 255.447268 
L 473.298125 255.447268 
" clip-path="url(#pfb5ae67d7c)" style="fill: none; stroke: #fafafa"/>
     </g>
    </g>
    <g id="ytick_8">
     <g id="line2d_30">
      <path d="M 54.692188 181.596952 
L 473.298125 181.596952 
" clip-path="url(#pfb5ae67d7c)" style="fill: none; stroke: #fafafa"/>
     </g>
    </g>
    <g id="ytick_9">
     <g id="line2d_31">
      <path d="M 54.692188 107.746637 
L 473.298125 107.746637 
" clip-path="url(#pfb5ae67d7c)" style="fill: none; stroke: #fafafa"/>
     </g>
    </g>
    <g id="ytick_10">
     <g id="line2d_32">
      <path d="M 54.692188 33.896321 
L 473.298125 33.896321 
" clip-path="url(#pfb5ae67d7c)" style="fill: none; stroke: #fafafa"/>
     </g>
    </g>
   </g>
   <g id="PolyCollection_1">
    <path d="M 200.570014 204.186561 
L 200.570014 216.163273 
L 216.4263 219.094775 
L 232.282585 219.845176 
L 248.138871 222.21247 
L 263.995156 225.67167 
L 279.851442 226.772888 
L 295.707727 227.533213 
L 311.564013 223.774421 
L 327.420298 222.689553 
L 343.276584 217.828273 
L 359.132869 211.464351 
L 374.989155 204.563315 
L 390.84544 198.776041 
L 406.701726 192.884441 
L 422.558011 186.988492 
L 438.414297 181.573294 
L 454.270582 176.164551 
L 454.270582 87.885443 
L 454.270582 87.885443 
L 438.414297 93.840781 
L 422.558011 100.175852 
L 406.701726 107.019813 
L 390.84544 113.99357 
L 374.989155 121.35895 
L 359.132869 129.645132 
L 343.276584 137.3942 
L 327.420298 146.225026 
L 311.564013 156.119495 
L 295.707727 167.728428 
L 279.851442 175.441866 
L 263.995156 183.350391 
L 248.138871 189.27617 
L 232.282585 196.056645 
L 216.4263 203.481483 
L 200.570014 204.186561 
z
" clip-path="url(#pfb5ae67d7c)" style="fill: #db5f57; fill-opacity: 0.101961"/>
   </g>
   <g id="line2d_33">
    <path d="M 200.570014 216.163273 
L 216.4263 219.094775 
L 232.282585 219.845176 
L 248.138871 222.21247 
L 263.995156 225.67167 
L 279.851442 226.772888 
L 295.707727 227.533213 
L 311.564013 223.774421 
L 327.420298 222.689553 
L 343.276584 217.828273 
L 359.132869 211.464351 
L 374.989155 204.563315 
L 390.84544 198.776041 
L 406.701726 192.884441 
L 422.558011 186.988492 
L 438.414297 181.573294 
L 454.270582 176.164551 
" clip-path="url(#pfb5ae67d7c)" style="fill: none; stroke: #000000; stroke-opacity: 0; stroke-width: 0.886227; stroke-linejoin: miter"/>
   </g>
   <g id="line2d_34">
    <path d="M 200.570014 204.186561 
L 216.4263 203.481483 
L 232.282585 196.056645 
L 248.138871 189.27617 
L 263.995156 183.350391 
L 279.851442 175.441866 
L 295.707727 167.728428 
L 311.564013 156.119495 
L 327.420298 146.225026 
L 343.276584 137.3942 
L 359.132869 129.645132 
L 374.989155 121.35895 
L 390.84544 113.99357 
L 406.701726 107.019813 
L 422.558011 100.175852 
L 438.414297 93.840781 
L 454.270582 87.885443 
" clip-path="url(#pfb5ae67d7c)" style="fill: none; stroke: #000000; stroke-opacity: 0; stroke-width: 0.886227; stroke-linejoin: miter"/>
   </g>
   <g id="PolyCollection_2">
    <path d="M 200.570014 204.764252 
L 200.570014 216.683784 
L 216.4263 217.675077 
L 232.282585 214.647377 
L 248.138871 211.970411 
L 263.995156 210.54758 
L 279.851442 207.997698 
L 295.707727 206.194392 
L 311.564013 201.341451 
L 327.420298 199.427985 
L 343.276584 196.654969 
L 359.132869 193.019855 
L 374.989155 188.124698 
L 390.84544 183.447698 
L 406.701726 177.649335 
L 422.558011 171.494104 
L 438.414297 165.791033 
L 454.270582 160.012648 
L 454.270582 74.222791 
L 454.270582 74.222791 
L 438.414297 80.626618 
L 422.558011 87.256145 
L 406.701726 94.341165 
L 390.84544 101.882019 
L 374.989155 110.834291 
L 359.132869 121.543073 
L 343.276584 131.597935 
L 327.420298 141.581211 
L 311.564013 151.204533 
L 295.707727 162.717403 
L 279.851442 171.036562 
L 263.995156 179.820943 
L 248.138871 187.269331 
L 232.282585 195.540152 
L 216.4263 204.02406 
L 200.570014 204.764252 
z
" clip-path="url(#pfb5ae67d7c)" style="fill: #91db57; fill-opacity: 0.101961"/>
   </g>
   <g id="line2d_35">
    <path d="M 200.570014 216.683784 
L 216.4263 217.675077 
L 232.282585 214.647377 
L 248.138871 211.970411 
L 263.995156 210.54758 
L 279.851442 207.997698 
L 295.707727 206.194392 
L 311.564013 201.341451 
L 327.420298 199.427985 
L 343.276584 196.654969 
L 359.132869 193.019855 
L 374.989155 188.124698 
L 390.84544 183.447698 
L 406.701726 177.649335 
L 422.558011 171.494104 
L 438.414297 165.791033 
L 454.270582 160.012648 
" clip-path="url(#pfb5ae67d7c)" style="fill: none; stroke: #000000; stroke-opacity: 0; stroke-width: 0.886227; stroke-linejoin: miter"/>
   </g>
   <g id="line2d_36">
    <path d="M 200.570014 204.764252 
L 216.4263 204.02406 
L 232.282585 195.540152 
L 248.138871 187.269331 
L 263.995156 179.820943 
L 279.851442 171.036562 
L 295.707727 162.717403 
L 311.564013 151.204533 
L 327.420298 141.581211 
L 343.276584 131.597935 
L 359.132869 121.543073 
L 374.989155 110.834291 
L 390.84544 101.882019 
L 406.701726 94.341165 
L 422.558011 87.256145 
L 438.414297 80.626618 
L 454.270582 74.222791 
" clip-path="url(#pfb5ae67d7c)" style="fill: none; stroke: #000000; stroke-opacity: 0; stroke-width: 0.886227; stroke-linejoin: miter"/>
   </g>
   <g id="PolyCollection_3">
    <path d="M 200.570014 204.964959 
L 200.570014 216.723549 
L 216.4263 216.713308 
L 232.282585 211.623328 
L 248.138871 205.722972 
L 263.995156 200.816486 
L 279.851442 194.226182 
L 295.707727 188.653741 
L 311.564013 179.138694 
L 327.420298 172.591586 
L 343.276584 165.629125 
L 359.132869 158.547812 
L 374.989155 151.250166 
L 390.84544 145.079995 
L 406.701726 138.907757 
L 422.558011 133.10885 
L 438.414297 127.62755 
L 454.270582 122.709868 
L 454.270582 87.336402 
L 454.270582 87.336402 
L 438.414297 92.474917 
L 422.558011 98.221984 
L 406.701726 104.317686 
L 390.84544 110.826692 
L 374.989155 117.551271 
L 359.132869 125.383828 
L 343.276584 133.000052 
L 327.420298 140.485131 
L 311.564013 148.039209 
L 295.707727 158.252179 
L 279.851442 167.667738 
L 263.995156 177.749936 
L 248.138871 186.222204 
L 232.282585 195.263146 
L 216.4263 204.037802 
L 200.570014 204.964959 
z
" clip-path="url(#pfb5ae67d7c)" style="fill: #57d3db; fill-opacity: 0.101961"/>
   </g>
   <g id="line2d_37">
    <path d="M 200.570014 216.723549 
L 216.4263 216.713308 
L 232.282585 211.623328 
L 248.138871 205.722972 
L 263.995156 200.816486 
L 279.851442 194.226182 
L 295.707727 188.653741 
L 311.564013 179.138694 
L 327.420298 172.591586 
L 343.276584 165.629125 
L 359.132869 158.547812 
L 374.989155 151.250166 
L 390.84544 145.079995 
L 406.701726 138.907757 
L 422.558011 133.10885 
L 438.414297 127.62755 
L 454.270582 122.709868 
" clip-path="url(#pfb5ae67d7c)" style="fill: none; stroke: #000000; stroke-opacity: 0; stroke-width: 0.886227; stroke-linejoin: miter"/>
   </g>
   <g id="line2d_38">
    <path d="M 200.570014 204.964959 
L 216.4263 204.037802 
L 232.282585 195.263146 
L 248.138871 186.222204 
L 263.995156 177.749936 
L 279.851442 167.667738 
L 295.707727 158.252179 
L 311.564013 148.039209 
L 327.420298 140.485131 
L 343.276584 133.000052 
L 359.132869 125.383828 
L 374.989155 117.551271 
L 390.84544 110.826692 
L 406.701726 104.317686 
L 422.558011 98.221984 
L 438.414297 92.474917 
L 454.270582 87.336402 
" clip-path="url(#pfb5ae67d7c)" style="fill: none; stroke: #000000; stroke-opacity: 0; stroke-width: 0.886227; stroke-linejoin: miter"/>
   </g>
   <g id="PolyCollection_4">
    <path d="M 200.570014 205.011883 
L 200.570014 217.158119 
L 216.4263 222.157784 
L 232.282585 226.951686 
L 248.138871 234.455362 
L 263.995156 242.449594 
L 279.851442 248.395975 
L 295.707727 252.867992 
L 311.564013 252.961023 
L 327.420298 255.584469 
L 343.276584 255.674783 
L 359.132869 254.914205 
L 374.989155 252.415127 
L 390.84544 248.7629 
L 406.701726 244.429911 
L 422.558011 240.479611 
L 438.414297 236.87897 
L 454.270582 233.544677 
L 454.270582 127.921818 
L 454.270582 127.921818 
L 438.414297 131.150896 
L 422.558011 134.767546 
L 406.701726 138.941602 
L 390.84544 143.498346 
L 374.989155 148.608416 
L 359.132869 155.807325 
L 343.276584 163.332179 
L 327.420298 169.549402 
L 311.564013 175.68782 
L 295.707727 183.661932 
L 279.851442 188.378854 
L 263.995156 193.039592 
L 248.138871 196.148062 
L 232.282585 200.055055 
L 216.4263 205.445589 
L 200.570014 205.011883 
z
" clip-path="url(#pfb5ae67d7c)" style="fill: #a157db; fill-opacity: 0.101961"/>
   </g>
   <g id="line2d_39">
    <path d="M 200.570014 217.158119 
L 216.4263 222.157784 
L 232.282585 226.951686 
L 248.138871 234.455362 
L 263.995156 242.449594 
L 279.851442 248.395975 
L 295.707727 252.867992 
L 311.564013 252.961023 
L 327.420298 255.584469 
L 343.276584 255.674783 
L 359.132869 254.914205 
L 374.989155 252.415127 
L 390.84544 248.7629 
L 406.701726 244.429911 
L 422.558011 240.479611 
L 438.414297 236.87897 
L 454.270582 233.544677 
" clip-path="url(#pfb5ae67d7c)" style="fill: none; stroke: #000000; stroke-opacity: 0; stroke-width: 0.886227; stroke-linejoin: miter"/>
   </g>
   <g id="line2d_40">
    <path d="M 200.570014 205.011883 
L 216.4263 205.445589 
L 232.282585 200.055055 
L 248.138871 196.148062 
L 263.995156 193.039592 
L 279.851442 188.378854 
L 295.707727 183.661932 
L 311.564013 175.68782 
L 327.420298 169.549402 
L 343.276584 163.332179 
L 359.132869 155.807325 
L 374.989155 148.608416 
L 390.84544 143.498346 
L 406.701726 138.941602 
L 422.558011 134.767546 
L 438.414297 131.150896 
L 454.270582 127.921818 
" clip-path="url(#pfb5ae67d7c)" style="fill: none; stroke: #000000; stroke-opacity: 0; stroke-width: 0.886227; stroke-linejoin: miter"/>
   </g>
   <g id="line2d_41">
    <path d="M 200.570014 210.174917 
L 216.4263 211.288129 
L 232.282585 207.950911 
L 248.138871 205.74432 
L 263.995156 204.511031 
L 279.851442 201.107377 
L 295.707727 197.630821 
L 311.564013 189.946958 
L 327.420298 184.45729 
L 343.276584 177.611236 
L 359.132869 170.554742 
L 374.989155 162.961133 
L 390.84544 156.384806 
L 406.701726 149.952127 
L 422.558011 143.582172 
L 438.414297 137.707037 
L 454.270582 132.024997 
" clip-path="url(#pfb5ae67d7c)" style="fill: none; stroke: #db5f57; stroke-width: 0.886227"/>
   </g>
   <g id="line2d_42">
    <path d="M 200.570014 210.724018 
L 216.4263 210.849568 
L 232.282585 205.093764 
L 248.138871 199.619871 
L 263.995156 195.184261 
L 279.851442 189.51713 
L 295.707727 184.455898 
L 311.564013 176.272992 
L 327.420298 170.504598 
L 343.276584 164.126452 
L 359.132869 157.281464 
L 374.989155 149.479494 
L 390.84544 142.664859 
L 406.701726 135.99525 
L 422.558011 129.375124 
L 438.414297 123.208826 
L 454.270582 117.117719 
" clip-path="url(#pfb5ae67d7c)" style="fill: none; stroke: #91db57; stroke-width: 0.886227"/>
   </g>
   <g id="line2d_43">
    <path d="M 200.570014 210.844254 
L 216.4263 210.375555 
L 232.282585 203.443237 
L 248.138871 195.972588 
L 263.995156 189.283211 
L 279.851442 180.94696 
L 295.707727 173.45296 
L 311.564013 163.588951 
L 327.420298 156.538358 
L 343.276584 149.314589 
L 359.132869 141.96582 
L 374.989155 134.400718 
L 390.84544 127.953343 
L 406.701726 121.612722 
L 422.558011 115.665417 
L 438.414297 110.051233 
L 454.270582 105.023135 
" clip-path="url(#pfb5ae67d7c)" style="fill: none; stroke: #57d3db; stroke-width: 0.886227"/>
   </g>
   <g id="line2d_44">
    <path d="M 200.570014 211.085001 
L 216.4263 213.801687 
L 232.282585 213.50337 
L 248.138871 215.301712 
L 263.995156 217.744593 
L 279.851442 218.387414 
L 295.707727 218.264962 
L 311.564013 214.324422 
L 327.420298 212.566936 
L 343.276584 209.503481 
L 359.132869 205.360765 
L 374.989155 200.511771 
L 390.84544 196.130623 
L 406.701726 191.685756 
L 422.558011 187.623578 
L 438.414297 184.014933 
L 454.270582 180.733247 
" clip-path="url(#pfb5ae67d7c)" style="fill: none; stroke: #a157db; stroke-width: 0.886227"/>
   </g>
   <g id="line2d_45">
    <path d="M 73.71973 308.948129 
L 76.890987 304.901132 
L 80.062244 299.569139 
L 83.233501 290.577863 
L 86.404759 283.761479 
L 89.576016 283.9978 
L 92.747273 280.427876 
L 95.91853 278.536569 
L 99.089787 282.088031 
L 102.261044 275.269431 
L 105.432301 270.969866 
L 108.603558 273.449021 
L 111.774815 269.499506 
L 114.946072 263.18235 
L 118.11733 267.208669 
L 121.288587 257.850357 
L 124.459844 252.099929 
L 127.631101 251.384245 
L 130.802358 251.186769 
L 133.973615 247.726365 
L 137.144872 258.634943 
L 140.316129 260.938704 
L 143.487386 261.939006 
L 146.658643 272.269853 
L 149.829901 259.263262 
L 153.001158 252.350872 
L 156.172415 239.94269 
L 159.343672 236.281413 
L 162.514929 230.72942 
L 165.686186 227.927613 
L 168.857443 225.668014 
L 172.0287 220.043353 
L 175.199957 214.627614 
L 178.371214 211.816723 
L 181.542472 207.206543 
L 184.713729 200.738437 
L 187.884986 199.197772 
L 191.056243 197.443532 
L 194.2275 198.239786 
L 197.398757 196.710863 
L 200.570014 195.130835 
" clip-path="url(#pfb5ae67d7c)" style="fill: none; stroke-dasharray: 3.27904,1.417963; stroke-dashoffset: 0; stroke: #808080; stroke-width: 0.886227"/>
   </g>
  </g>
  <g id="text_12">
   <!-- year -->
   <g transform="translate(247.261953 417.360469) scale(0.15 -0.15)">
    <defs>
     <path id="DejaVuSans-79" d="M 2059 -325 
Q 1816 -950 1584 -1140 
Q 1353 -1331 966 -1331 
L 506 -1331 
L 506 -850 
L 844 -850 
Q 1081 -850 1212 -737 
Q 1344 -625 1503 -206 
L 1606 56 
L 191 3500 
L 800 3500 
L 1894 763 
L 2988 3500 
L 3597 3500 
L 2059 -325 
z
" transform="scale(0.015625)"/>
     <path id="DejaVuSans-65" d="M 3597 1894 
L 3597 1613 
L 953 1613 
Q 991 1019 1311 708 
Q 1631 397 2203 397 
Q 2534 397 2845 478 
Q 3156 559 3463 722 
L 3463 178 
Q 3153 47 2828 -22 
Q 2503 -91 2169 -91 
Q 1331 -91 842 396 
Q 353 884 353 1716 
Q 353 2575 817 3079 
Q 1281 3584 2069 3584 
Q 2775 3584 3186 3129 
Q 3597 2675 3597 1894 
z
M 3022 2063 
Q 3016 2534 2758 2815 
Q 2500 3097 2075 3097 
Q 1594 3097 1305 2825 
Q 1016 2553 972 2059 
L 3022 2063 
z
" transform="scale(0.015625)"/>
     <path id="DejaVuSans-61" d="M 2194 1759 
Q 1497 1759 1228 1600 
Q 959 1441 959 1056 
Q 959 750 1161 570 
Q 1363 391 1709 391 
Q 2188 391 2477 730 
Q 2766 1069 2766 1631 
L 2766 1759 
L 2194 1759 
z
M 3341 1997 
L 3341 0 
L 2766 0 
L 2766 531 
Q 2569 213 2275 61 
Q 1981 -91 1556 -91 
Q 1019 -91 701 211 
Q 384 513 384 1019 
Q 384 1609 779 1909 
Q 1175 2209 1959 2209 
L 2766 2209 
L 2766 2266 
Q 2766 2663 2505 2880 
Q 2244 3097 1772 3097 
Q 1472 3097 1187 3025 
Q 903 2953 641 2809 
L 641 3341 
Q 956 3463 1253 3523 
Q 1550 3584 1831 3584 
Q 2591 3584 2966 3190 
Q 3341 2797 3341 1997 
z
" transform="scale(0.015625)"/>
     <path id="DejaVuSans-72" d="M 2631 2963 
Q 2534 3019 2420 3045 
Q 2306 3072 2169 3072 
Q 1681 3072 1420 2755 
Q 1159 2438 1159 1844 
L 1159 0 
L 581 0 
L 581 3500 
L 1159 3500 
L 1159 2956 
Q 1341 3275 1631 3429 
Q 1922 3584 2338 3584 
Q 2397 3584 2469 3576 
Q 2541 3569 2628 3553 
L 2631 2963 
z
" transform="scale(0.015625)"/>
    </defs>
    <use xlink:href="#DejaVuSans-79"/>
    <use xlink:href="#DejaVuSans-65" x="59.179688"/>
    <use xlink:href="#DejaVuSans-61" x="120.703125"/>
    <use xlink:href="#DejaVuSans-72" x="181.982422"/>
   </g>
  </g>
  <g id="text_13">
   <!-- Production (milliom t) -->
   <g transform="translate(17.157656 281.0525) rotate(-90) scale(0.15 -0.15)">
    <defs>
     <path id="DejaVuSans-50" d="M 1259 4147 
L 1259 2394 
L 2053 2394 
Q 2494 2394 2734 2622 
Q 2975 2850 2975 3272 
Q 2975 3691 2734 3919 
Q 2494 4147 2053 4147 
L 1259 4147 
z
M 628 4666 
L 2053 4666 
Q 2838 4666 3239 4311 
Q 3641 3956 3641 3272 
Q 3641 2581 3239 2228 
Q 2838 1875 2053 1875 
L 1259 1875 
L 1259 0 
L 628 0 
L 628 4666 
z
" transform="scale(0.015625)"/>
     <path id="DejaVuSans-6f" d="M 1959 3097 
Q 1497 3097 1228 2736 
Q 959 2375 959 1747 
Q 959 1119 1226 758 
Q 1494 397 1959 397 
Q 2419 397 2687 759 
Q 2956 1122 2956 1747 
Q 2956 2369 2687 2733 
Q 2419 3097 1959 3097 
z
M 1959 3584 
Q 2709 3584 3137 3096 
Q 3566 2609 3566 1747 
Q 3566 888 3137 398 
Q 2709 -91 1959 -91 
Q 1206 -91 779 398 
Q 353 888 353 1747 
Q 353 2609 779 3096 
Q 1206 3584 1959 3584 
z
" transform="scale(0.015625)"/>
     <path id="DejaVuSans-64" d="M 2906 2969 
L 2906 4863 
L 3481 4863 
L 3481 0 
L 2906 0 
L 2906 525 
Q 2725 213 2448 61 
Q 2172 -91 1784 -91 
Q 1150 -91 751 415 
Q 353 922 353 1747 
Q 353 2572 751 3078 
Q 1150 3584 1784 3584 
Q 2172 3584 2448 3432 
Q 2725 3281 2906 2969 
z
M 947 1747 
Q 947 1113 1208 752 
Q 1469 391 1925 391 
Q 2381 391 2643 752 
Q 2906 1113 2906 1747 
Q 2906 2381 2643 2742 
Q 2381 3103 1925 3103 
Q 1469 3103 1208 2742 
Q 947 2381 947 1747 
z
" transform="scale(0.015625)"/>
     <path id="DejaVuSans-75" d="M 544 1381 
L 544 3500 
L 1119 3500 
L 1119 1403 
Q 1119 906 1312 657 
Q 1506 409 1894 409 
Q 2359 409 2629 706 
Q 2900 1003 2900 1516 
L 2900 3500 
L 3475 3500 
L 3475 0 
L 2900 0 
L 2900 538 
Q 2691 219 2414 64 
Q 2138 -91 1772 -91 
Q 1169 -91 856 284 
Q 544 659 544 1381 
z
M 1991 3584 
L 1991 3584 
z
" transform="scale(0.015625)"/>
     <path id="DejaVuSans-63" d="M 3122 3366 
L 3122 2828 
Q 2878 2963 2633 3030 
Q 2388 3097 2138 3097 
Q 1578 3097 1268 2742 
Q 959 2388 959 1747 
Q 959 1106 1268 751 
Q 1578 397 2138 397 
Q 2388 397 2633 464 
Q 2878 531 3122 666 
L 3122 134 
Q 2881 22 2623 -34 
Q 2366 -91 2075 -91 
Q 1284 -91 818 406 
Q 353 903 353 1747 
Q 353 2603 823 3093 
Q 1294 3584 2113 3584 
Q 2378 3584 2631 3529 
Q 2884 3475 3122 3366 
z
" transform="scale(0.015625)"/>
     <path id="DejaVuSans-74" d="M 1172 4494 
L 1172 3500 
L 2356 3500 
L 2356 3053 
L 1172 3053 
L 1172 1153 
Q 1172 725 1289 603 
Q 1406 481 1766 481 
L 2356 481 
L 2356 0 
L 1766 0 
Q 1100 0 847 248 
Q 594 497 594 1153 
L 594 3053 
L 172 3053 
L 172 3500 
L 594 3500 
L 594 4494 
L 1172 4494 
z
" transform="scale(0.015625)"/>
     <path id="DejaVuSans-69" d="M 603 3500 
L 1178 3500 
L 1178 0 
L 603 0 
L 603 3500 
z
M 603 4863 
L 1178 4863 
L 1178 4134 
L 603 4134 
L 603 4863 
z
" transform="scale(0.015625)"/>
     <path id="DejaVuSans-6e" d="M 3513 2113 
L 3513 0 
L 2938 0 
L 2938 2094 
Q 2938 2591 2744 2837 
Q 2550 3084 2163 3084 
Q 1697 3084 1428 2787 
Q 1159 2491 1159 1978 
L 1159 0 
L 581 0 
L 581 3500 
L 1159 3500 
L 1159 2956 
Q 1366 3272 1645 3428 
Q 1925 3584 2291 3584 
Q 2894 3584 3203 3211 
Q 3513 2838 3513 2113 
z
" transform="scale(0.015625)"/>
     <path id="DejaVuSans-20" transform="scale(0.015625)"/>
     <path id="DejaVuSans-28" d="M 1984 4856 
Q 1566 4138 1362 3434 
Q 1159 2731 1159 2009 
Q 1159 1288 1364 580 
Q 1569 -128 1984 -844 
L 1484 -844 
Q 1016 -109 783 600 
Q 550 1309 550 2009 
Q 550 2706 781 3412 
Q 1013 4119 1484 4856 
L 1984 4856 
z
" transform="scale(0.015625)"/>
     <path id="DejaVuSans-6d" d="M 3328 2828 
Q 3544 3216 3844 3400 
Q 4144 3584 4550 3584 
Q 5097 3584 5394 3201 
Q 5691 2819 5691 2113 
L 5691 0 
L 5113 0 
L 5113 2094 
Q 5113 2597 4934 2840 
Q 4756 3084 4391 3084 
Q 3944 3084 3684 2787 
Q 3425 2491 3425 1978 
L 3425 0 
L 2847 0 
L 2847 2094 
Q 2847 2600 2669 2842 
Q 2491 3084 2119 3084 
Q 1678 3084 1418 2786 
Q 1159 2488 1159 1978 
L 1159 0 
L 581 0 
L 581 3500 
L 1159 3500 
L 1159 2956 
Q 1356 3278 1631 3431 
Q 1906 3584 2284 3584 
Q 2666 3584 2933 3390 
Q 3200 3197 3328 2828 
z
" transform="scale(0.015625)"/>
     <path id="DejaVuSans-6c" d="M 603 4863 
L 1178 4863 
L 1178 0 
L 603 0 
L 603 4863 
z
" transform="scale(0.015625)"/>
     <path id="DejaVuSans-29" d="M 513 4856 
L 1013 4856 
Q 1481 4119 1714 3412 
Q 1947 2706 1947 2009 
Q 1947 1309 1714 600 
Q 1481 -109 1013 -844 
L 513 -844 
Q 928 -128 1133 580 
Q 1338 1288 1338 2009 
Q 1338 2731 1133 3434 
Q 928 4138 513 4856 
z
" transform="scale(0.015625)"/>
    </defs>
    <use xlink:href="#DejaVuSans-50"/>
    <use xlink:href="#DejaVuSans-72" x="58.552734"/>
    <use xlink:href="#DejaVuSans-6f" x="97.416016"/>
    <use xlink:href="#DejaVuSans-64" x="158.597656"/>
    <use xlink:href="#DejaVuSans-75" x="222.074219"/>
    <use xlink:href="#DejaVuSans-63" x="285.453125"/>
    <use xlink:href="#DejaVuSans-74" x="340.433594"/>
    <use xlink:href="#DejaVuSans-69" x="379.642578"/>
    <use xlink:href="#DejaVuSans-6f" x="407.425781"/>
    <use xlink:href="#DejaVuSans-6e" x="468.607422"/>
    <use xlink:href="#DejaVuSans-20" x="531.986328"/>
    <use xlink:href="#DejaVuSans-28" x="563.773438"/>
    <use xlink:href="#DejaVuSans-6d" x="602.787109"/>
    <use xlink:href="#DejaVuSans-69" x="700.199219"/>
    <use xlink:href="#DejaVuSans-6c" x="727.982422"/>
    <use xlink:href="#DejaVuSans-6c" x="755.765625"/>
    <use xlink:href="#DejaVuSans-69" x="783.548828"/>
    <use xlink:href="#DejaVuSans-6f" x="811.332031"/>
    <use xlink:href="#DejaVuSans-6d" x="872.513672"/>
    <use xlink:href="#DejaVuSans-20" x="969.925781"/>
    <use xlink:href="#DejaVuSans-74" x="1001.712891"/>
    <use xlink:href="#DejaVuSans-29" x="1040.921875"/>
   </g>
  </g>
  <g id="patch_3">
   <path d="M 490.578125 282.536719 
L 570.24 282.536719 
L 570.24 117.582344 
L 490.578125 117.582344 
z
" style="fill: #ffffff"/>
  </g>
  <g id="text_14">
   <!-- Scenario -->
   <g transform="translate(490.778125 133.319063) scale(0.15 -0.15)">
    <defs>
     <path id="DejaVuSans-53" d="M 3425 4513 
L 3425 3897 
Q 3066 4069 2747 4153 
Q 2428 4238 2131 4238 
Q 1616 4238 1336 4038 
Q 1056 3838 1056 3469 
Q 1056 3159 1242 3001 
Q 1428 2844 1947 2747 
L 2328 2669 
Q 3034 2534 3370 2195 
Q 3706 1856 3706 1288 
Q 3706 609 3251 259 
Q 2797 -91 1919 -91 
Q 1588 -91 1214 -16 
Q 841 59 441 206 
L 441 856 
Q 825 641 1194 531 
Q 1563 422 1919 422 
Q 2459 422 2753 634 
Q 3047 847 3047 1241 
Q 3047 1584 2836 1778 
Q 2625 1972 2144 2069 
L 1759 2144 
Q 1053 2284 737 2584 
Q 422 2884 422 3419 
Q 422 4038 858 4394 
Q 1294 4750 2059 4750 
Q 2388 4750 2728 4690 
Q 3069 4631 3425 4513 
z
" transform="scale(0.015625)"/>
    </defs>
    <use xlink:href="#DejaVuSans-53"/>
    <use xlink:href="#DejaVuSans-63" x="63.476562"/>
    <use xlink:href="#DejaVuSans-65" x="118.457031"/>
    <use xlink:href="#DejaVuSans-6e" x="179.980469"/>
    <use xlink:href="#DejaVuSans-61" x="243.359375"/>
    <use xlink:href="#DejaVuSans-72" x="304.638672"/>
    <use xlink:href="#DejaVuSans-69" x="345.751953"/>
    <use xlink:href="#DejaVuSans-6f" x="373.535156"/>
   </g>
  </g>
  <g id="patch_4">
   <path d="M 490.778125 159.659531 
L 512.378125 159.659531 
L 512.378125 138.059531 
L 490.778125 138.059531 
z
" clip-path="url(#p66301c379a)" style="fill: #f2f2f2; stroke: #cccccc; stroke-linejoin: miter"/>
  </g>
  <g id="patch_5">
   <path d="M 491.221238 159.216418 
L 511.935012 159.216418 
L 511.935012 138.502645 
L 491.221238 138.502645 
z
" clip-path="url(#p66301c379a)" style="fill: #db5f57; fill-opacity: 0.101961"/>
  </g>
  <g id="line2d_46">
   <path d="M 490.778125 148.859531 
L 512.378125 148.859531 
" clip-path="url(#p66301c379a)" style="fill: none; stroke: #db5f57; stroke-width: 0.886227"/>
  </g>
  <g id="text_15">
   <!-- SSP1-26 -->
   <g transform="translate(515.378125 152.170781) scale(0.12 -0.12)">
    <defs>
     <path id="DejaVuSans-2d" d="M 313 2009 
L 1997 2009 
L 1997 1497 
L 313 1497 
L 313 2009 
z
" transform="scale(0.015625)"/>
     <path id="DejaVuSans-36" d="M 2113 2584 
Q 1688 2584 1439 2293 
Q 1191 2003 1191 1497 
Q 1191 994 1439 701 
Q 1688 409 2113 409 
Q 2538 409 2786 701 
Q 3034 994 3034 1497 
Q 3034 2003 2786 2293 
Q 2538 2584 2113 2584 
z
M 3366 4563 
L 3366 3988 
Q 3128 4100 2886 4159 
Q 2644 4219 2406 4219 
Q 1781 4219 1451 3797 
Q 1122 3375 1075 2522 
Q 1259 2794 1537 2939 
Q 1816 3084 2150 3084 
Q 2853 3084 3261 2657 
Q 3669 2231 3669 1497 
Q 3669 778 3244 343 
Q 2819 -91 2113 -91 
Q 1303 -91 875 529 
Q 447 1150 447 2328 
Q 447 3434 972 4092 
Q 1497 4750 2381 4750 
Q 2619 4750 2861 4703 
Q 3103 4656 3366 4563 
z
" transform="scale(0.015625)"/>
    </defs>
    <use xlink:href="#DejaVuSans-53"/>
    <use xlink:href="#DejaVuSans-53" x="63.476562"/>
    <use xlink:href="#DejaVuSans-50" x="126.953125"/>
    <use xlink:href="#DejaVuSans-31" x="187.255859"/>
    <use xlink:href="#DejaVuSans-2d" x="250.878906"/>
    <use xlink:href="#DejaVuSans-32" x="286.962891"/>
    <use xlink:href="#DejaVuSans-36" x="350.585938"/>
   </g>
  </g>
  <g id="patch_6">
   <path d="M 490.778125 183.259531 
L 512.378125 183.259531 
L 512.378125 161.659531 
L 490.778125 161.659531 
z
" clip-path="url(#p35d82c0c9a)" style="fill: #f2f2f2; stroke: #cccccc; stroke-linejoin: miter"/>
  </g>
  <g id="patch_7">
   <path d="M 491.221238 182.816418 
L 511.935012 182.816418 
L 511.935012 162.102645 
L 491.221238 162.102645 
z
" clip-path="url(#p35d82c0c9a)" style="fill: #91db57; fill-opacity: 0.101961"/>
  </g>
  <g id="line2d_47">
   <path d="M 490.778125 172.459531 
L 512.378125 172.459531 
" clip-path="url(#p35d82c0c9a)" style="fill: none; stroke: #91db57; stroke-width: 0.886227"/>
  </g>
  <g id="text_16">
   <!-- SSP2-45 -->
   <g transform="translate(515.378125 175.770781) scale(0.12 -0.12)">
    <use xlink:href="#DejaVuSans-53"/>
    <use xlink:href="#DejaVuSans-53" x="63.476562"/>
    <use xlink:href="#DejaVuSans-50" x="126.953125"/>
    <use xlink:href="#DejaVuSans-32" x="187.255859"/>
    <use xlink:href="#DejaVuSans-2d" x="250.878906"/>
    <use xlink:href="#DejaVuSans-34" x="286.962891"/>
    <use xlink:href="#DejaVuSans-35" x="350.585938"/>
   </g>
  </g>
  <g id="patch_8">
   <path d="M 490.778125 206.859531 
L 512.378125 206.859531 
L 512.378125 185.259531 
L 490.778125 185.259531 
z
" clip-path="url(#pb1e96dd3e8)" style="fill: #f2f2f2; stroke: #cccccc; stroke-linejoin: miter"/>
  </g>
  <g id="patch_9">
   <path d="M 491.221238 206.416418 
L 511.935012 206.416418 
L 511.935012 185.702645 
L 491.221238 185.702645 
z
" clip-path="url(#pb1e96dd3e8)" style="fill: #57d3db; fill-opacity: 0.101961"/>
  </g>
  <g id="line2d_48">
   <path d="M 490.778125 196.059531 
L 512.378125 196.059531 
" clip-path="url(#pb1e96dd3e8)" style="fill: none; stroke: #57d3db; stroke-width: 0.886227"/>
  </g>
  <g id="text_17">
   <!-- SSP3-60 -->
   <g transform="translate(515.378125 199.370781) scale(0.12 -0.12)">
    <use xlink:href="#DejaVuSans-53"/>
    <use xlink:href="#DejaVuSans-53" x="63.476562"/>
    <use xlink:href="#DejaVuSans-50" x="126.953125"/>
    <use xlink:href="#DejaVuSans-33" x="187.255859"/>
    <use xlink:href="#DejaVuSans-2d" x="250.878906"/>
    <use xlink:href="#DejaVuSans-36" x="286.962891"/>
    <use xlink:href="#DejaVuSans-30" x="350.585938"/>
   </g>
  </g>
  <g id="patch_10">
   <path d="M 490.778125 230.459531 
L 512.378125 230.459531 
L 512.378125 208.859531 
L 490.778125 208.859531 
z
" clip-path="url(#pcd6fdc1b63)" style="fill: #f2f2f2; stroke: #cccccc; stroke-linejoin: miter"/>
  </g>
  <g id="patch_11">
   <path d="M 491.221238 230.016418 
L 511.935012 230.016418 
L 511.935012 209.302645 
L 491.221238 209.302645 
z
" clip-path="url(#pcd6fdc1b63)" style="fill: #a157db; fill-opacity: 0.101961"/>
  </g>
  <g id="line2d_49">
   <path d="M 490.778125 219.659531 
L 512.378125 219.659531 
" clip-path="url(#pcd6fdc1b63)" style="fill: none; stroke: #a157db; stroke-width: 0.886227"/>
  </g>
  <g id="text_18">
   <!-- SSP5-85 -->
   <g transform="translate(515.378125 222.970781) scale(0.12 -0.12)">
    <defs>
     <path id="DejaVuSans-38" d="M 2034 2216 
Q 1584 2216 1326 1975 
Q 1069 1734 1069 1313 
Q 1069 891 1326 650 
Q 1584 409 2034 409 
Q 2484 409 2743 651 
Q 3003 894 3003 1313 
Q 3003 1734 2745 1975 
Q 2488 2216 2034 2216 
z
M 1403 2484 
Q 997 2584 770 2862 
Q 544 3141 544 3541 
Q 544 4100 942 4425 
Q 1341 4750 2034 4750 
Q 2731 4750 3128 4425 
Q 3525 4100 3525 3541 
Q 3525 3141 3298 2862 
Q 3072 2584 2669 2484 
Q 3125 2378 3379 2068 
Q 3634 1759 3634 1313 
Q 3634 634 3220 271 
Q 2806 -91 2034 -91 
Q 1263 -91 848 271 
Q 434 634 434 1313 
Q 434 1759 690 2068 
Q 947 2378 1403 2484 
z
M 1172 3481 
Q 1172 3119 1398 2916 
Q 1625 2713 2034 2713 
Q 2441 2713 2670 2916 
Q 2900 3119 2900 3481 
Q 2900 3844 2670 4047 
Q 2441 4250 2034 4250 
Q 1625 4250 1398 4047 
Q 1172 3844 1172 3481 
z
" transform="scale(0.015625)"/>
    </defs>
    <use xlink:href="#DejaVuSans-53"/>
    <use xlink:href="#DejaVuSans-53" x="63.476562"/>
    <use xlink:href="#DejaVuSans-50" x="126.953125"/>
    <use xlink:href="#DejaVuSans-35" x="187.255859"/>
    <use xlink:href="#DejaVuSans-2d" x="250.878906"/>
    <use xlink:href="#DejaVuSans-38" x="286.962891"/>
    <use xlink:href="#DejaVuSans-35" x="350.585938"/>
   </g>
  </g>
  <g id="text_19">
   <!--   -->
   <g transform="translate(490.778125 255.99625) scale(0.15 -0.15)">
    <use xlink:href="#DejaVuSans-20"/>
   </g>
  </g>
  <g id="patch_12">
   <path d="M 490.778125 282.336719 
L 512.378125 282.336719 
L 512.378125 260.736719 
L 490.778125 260.736719 
z
" clip-path="url(#pe96a780325)" style="fill: #f2f2f2; stroke: #cccccc; stroke-linejoin: miter"/>
  </g>
  <g id="line2d_50">
   <path d="M 490.778125 271.536719 
L 512.378125 271.536719 
" clip-path="url(#pe96a780325)" style="fill: none; stroke-dasharray: 3.27904,1.417963; stroke-dashoffset: 0; stroke: #808080; stroke-width: 0.886227"/>
  </g>
  <g id="text_20">
   <!-- Yearbook -->
   <g transform="translate(515.378125 274.847969) scale(0.12 -0.12)">
    <defs>
     <path id="DejaVuSans-59" d="M -13 4666 
L 666 4666 
L 1959 2747 
L 3244 4666 
L 3922 4666 
L 2272 2222 
L 2272 0 
L 1638 0 
L 1638 2222 
L -13 4666 
z
" transform="scale(0.015625)"/>
     <path id="DejaVuSans-62" d="M 3116 1747 
Q 3116 2381 2855 2742 
Q 2594 3103 2138 3103 
Q 1681 3103 1420 2742 
Q 1159 2381 1159 1747 
Q 1159 1113 1420 752 
Q 1681 391 2138 391 
Q 2594 391 2855 752 
Q 3116 1113 3116 1747 
z
M 1159 2969 
Q 1341 3281 1617 3432 
Q 1894 3584 2278 3584 
Q 2916 3584 3314 3078 
Q 3713 2572 3713 1747 
Q 3713 922 3314 415 
Q 2916 -91 2278 -91 
Q 1894 -91 1617 61 
Q 1341 213 1159 525 
L 1159 0 
L 581 0 
L 581 4863 
L 1159 4863 
L 1159 2969 
z
" transform="scale(0.015625)"/>
     <path id="DejaVuSans-6b" d="M 581 4863 
L 1159 4863 
L 1159 1991 
L 2875 3500 
L 3609 3500 
L 1753 1863 
L 3688 0 
L 2938 0 
L 1159 1709 
L 1159 0 
L 581 0 
L 581 4863 
z
" transform="scale(0.015625)"/>
    </defs>
    <use xlink:href="#DejaVuSans-59"/>
    <use xlink:href="#DejaVuSans-65" x="47.833984"/>
    <use xlink:href="#DejaVuSans-61" x="109.357422"/>
    <use xlink:href="#DejaVuSans-72" x="170.636719"/>
    <use xlink:href="#DejaVuSans-62" x="211.75"/>
    <use xlink:href="#DejaVuSans-6f" x="275.226562"/>
    <use xlink:href="#DejaVuSans-6f" x="336.408203"/>
    <use xlink:href="#DejaVuSans-6b" x="397.589844"/>
   </g>
  </g>
 </g>
 <defs>
  <clipPath id="pfb5ae67d7c">
   <rect x="54.692188" y="17.28" width="418.605938" height="365.559062"/>
  </clipPath>
  <clipPath id="p66301c379a">
   <path d="M 490.778125 159.659531 
L 490.778125 138.059531 
L 512.378125 138.059531 
L 512.378125 159.659531 
"/>
  </clipPath>
  <clipPath id="p35d82c0c9a">
   <path d="M 490.778125 183.259531 
L 490.778125 161.659531 
L 512.378125 161.659531 
L 512.378125 183.259531 
"/>
  </clipPath>
  <clipPath id="pb1e96dd3e8">
   <path d="M 490.778125 206.859531 
L 490.778125 185.259531 
L 512.378125 185.259531 
L 512.378125 206.859531 
"/>
  </clipPath>
  <clipPath id="pcd6fdc1b63">
   <path d="M 490.778125 230.459531 
L 490.778125 208.859531 
L 512.378125 208.859531 
L 512.378125 230.459531 
"/>
  </clipPath>
  <clipPath id="pe96a780325">
   <path d="M 490.778125 282.336719 
L 490.778125 260.736719 
L 512.378125 260.736719 
L 512.378125 282.336719 
"/>
  </clipPath>
 </defs>
</svg>
