<?xml version="1.0" encoding="utf-8" standalone="no"?>
<!DOCTYPE svg PUBLIC "-//W3C//DTD SVG 1.1//EN"
  "http://www.w3.org/Graphics/SVG/1.1/DTD/svg11.dtd">
<svg xmlns:xlink="http://www.w3.org/1999/xlink" width="504pt" height="360pt" viewBox="0 0 504 360" xmlns="http://www.w3.org/2000/svg" version="1.1">
 <metadata>
  <rdf:RDF xmlns:dc="http://purl.org/dc/elements/1.1/" xmlns:cc="http://creativecommons.org/ns#" xmlns:rdf="http://www.w3.org/1999/02/22-rdf-syntax-ns#">
   <cc:Work>
    <dc:type rdf:resource="http://purl.org/dc/dcmitype/StillImage"/>
    <dc:date>2023-06-19T16:23:08.614068</dc:date>
    <dc:format>image/svg+xml</dc:format>
    <dc:creator>
     <cc:Agent>
      <dc:title>Matplotlib v3.7.1, https://matplotlib.org/</dc:title>
     </cc:Agent>
    </dc:creator>
   </cc:Work>
  </rdf:RDF>
 </metadata>
 <defs>
  <style type="text/css">*{stroke-linejoin: round; stroke-linecap: butt}</style>
 </defs>
 <g id="figure_1">
  <g id="patch_1">
   <path d="M 0 360 
L 504 360 
L 504 0 
L 0 0 
z
" style="fill: #ffffff; stroke: #ffffff; stroke-linejoin: miter"/>
  </g>
  <g id="axes_1">
   <g id="patch_2">
    <path d="M 60.887187 312.999063 
L 404.178125 312.999063 
L 404.178125 15.12 
L 60.887187 15.12 
z
" style="fill: #ffffff; stroke: #7f7f7f; stroke-linejoin: miter"/>
   </g>
   <g id="matplotlib.axis_1">
    <g id="xtick_1">
     <g id="line2d_1">
      <path d="M 76.491321 312.999063 
L 76.491321 15.12 
" clip-path="url(#p37c738b3f3)" style="fill: none; stroke: #e5e5e5; stroke-width: 0.8"/>
     </g>
     <g id="line2d_2">
      <path d="M 76.491321 312.999063 
" style="fill: none; stroke: #000000; stroke-width: 1.5"/>
      <defs>
       <path id="m7fa2292b61" d="M 0 0 
L 0 3.75 
" style="stroke: #333333"/>
      </defs>
      <g>
       <use xlink:href="#m7fa2292b61" x="76.491321" y="312.999063" style="stroke: #333333"/>
      </g>
     </g>
     <g id="text_1">
      <!-- 2000 -->
      <g style="fill: #4d4d4d" transform="translate(61.221321 327.867188) scale(0.12 -0.12)">
       <defs>
        <path id="DejaVuSans-32" d="M 1228 531 
L 3431 531 
L 3431 0 
L 469 0 
L 469 531 
Q 828 903 1448 1529 
Q 2069 2156 2228 2338 
Q 2531 2678 2651 2914 
Q 2772 3150 2772 3378 
Q 2772 3750 2511 3984 
Q 2250 4219 1831 4219 
Q 1534 4219 1204 4116 
Q 875 4013 500 3803 
L 500 4441 
Q 881 4594 1212 4672 
Q 1544 4750 1819 4750 
Q 2544 4750 2975 4387 
Q 3406 4025 3406 3419 
Q 3406 3131 3298 2873 
Q 3191 2616 2906 2266 
Q 2828 2175 2409 1742 
Q 1991 1309 1228 531 
z
" transform="scale(0.015625)"/>
        <path id="DejaVuSans-30" d="M 2034 4250 
Q 1547 4250 1301 3770 
Q 1056 3291 1056 2328 
Q 1056 1369 1301 889 
Q 1547 409 2034 409 
Q 2525 409 2770 889 
Q 3016 1369 3016 2328 
Q 3016 3291 2770 3770 
Q 2525 4250 2034 4250 
z
M 2034 4750 
Q 2819 4750 3233 4129 
Q 3647 3509 3647 2328 
Q 3647 1150 3233 529 
Q 2819 -91 2034 -91 
Q 1250 -91 836 529 
Q 422 1150 422 2328 
Q 422 3509 836 4129 
Q 1250 4750 2034 4750 
z
" transform="scale(0.015625)"/>
       </defs>
       <use xlink:href="#DejaVuSans-32"/>
       <use xlink:href="#DejaVuSans-30" x="63.623047"/>
       <use xlink:href="#DejaVuSans-30" x="127.246094"/>
       <use xlink:href="#DejaVuSans-30" x="190.869141"/>
      </g>
     </g>
    </g>
    <g id="xtick_2">
     <g id="line2d_3">
      <path d="M 154.511989 312.999063 
L 154.511989 15.12 
" clip-path="url(#p37c738b3f3)" style="fill: none; stroke: #e5e5e5; stroke-width: 0.8"/>
     </g>
     <g id="line2d_4">
      <path d="M 154.511989 312.999063 
" style="fill: none; stroke: #000000; stroke-width: 1.5"/>
      <g>
       <use xlink:href="#m7fa2292b61" x="154.511989" y="312.999063" style="stroke: #333333"/>
      </g>
     </g>
     <g id="text_2">
      <!-- 2025 -->
      <g style="fill: #4d4d4d" transform="translate(139.241989 327.867188) scale(0.12 -0.12)">
       <defs>
        <path id="DejaVuSans-35" d="M 691 4666 
L 3169 4666 
L 3169 4134 
L 1269 4134 
L 1269 2991 
Q 1406 3038 1543 3061 
Q 1681 3084 1819 3084 
Q 2600 3084 3056 2656 
Q 3513 2228 3513 1497 
Q 3513 744 3044 326 
Q 2575 -91 1722 -91 
Q 1428 -91 1123 -41 
Q 819 9 494 109 
L 494 744 
Q 775 591 1075 516 
Q 1375 441 1709 441 
Q 2250 441 2565 725 
Q 2881 1009 2881 1497 
Q 2881 1984 2565 2268 
Q 2250 2553 1709 2553 
Q 1456 2553 1204 2497 
Q 953 2441 691 2322 
L 691 4666 
z
" transform="scale(0.015625)"/>
       </defs>
       <use xlink:href="#DejaVuSans-32"/>
       <use xlink:href="#DejaVuSans-30" x="63.623047"/>
       <use xlink:href="#DejaVuSans-32" x="127.246094"/>
       <use xlink:href="#DejaVuSans-35" x="190.869141"/>
      </g>
     </g>
    </g>
    <g id="xtick_3">
     <g id="line2d_5">
      <path d="M 232.532656 312.999063 
L 232.532656 15.12 
" clip-path="url(#p37c738b3f3)" style="fill: none; stroke: #e5e5e5; stroke-width: 0.8"/>
     </g>
     <g id="line2d_6">
      <path d="M 232.532656 312.999063 
" style="fill: none; stroke: #000000; stroke-width: 1.5"/>
      <g>
       <use xlink:href="#m7fa2292b61" x="232.532656" y="312.999063" style="stroke: #333333"/>
      </g>
     </g>
     <g id="text_3">
      <!-- 2050 -->
      <g style="fill: #4d4d4d" transform="translate(217.262656 327.867188) scale(0.12 -0.12)">
       <use xlink:href="#DejaVuSans-32"/>
       <use xlink:href="#DejaVuSans-30" x="63.623047"/>
       <use xlink:href="#DejaVuSans-35" x="127.246094"/>
       <use xlink:href="#DejaVuSans-30" x="190.869141"/>
      </g>
     </g>
    </g>
    <g id="xtick_4">
     <g id="line2d_7">
      <path d="M 310.553324 312.999063 
L 310.553324 15.12 
" clip-path="url(#p37c738b3f3)" style="fill: none; stroke: #e5e5e5; stroke-width: 0.8"/>
     </g>
     <g id="line2d_8">
      <path d="M 310.553324 312.999063 
" style="fill: none; stroke: #000000; stroke-width: 1.5"/>
      <g>
       <use xlink:href="#m7fa2292b61" x="310.553324" y="312.999063" style="stroke: #333333"/>
      </g>
     </g>
     <g id="text_4">
      <!-- 2075 -->
      <g style="fill: #4d4d4d" transform="translate(295.283324 327.867188) scale(0.12 -0.12)">
       <defs>
        <path id="DejaVuSans-37" d="M 525 4666 
L 3525 4666 
L 3525 4397 
L 1831 0 
L 1172 0 
L 2766 4134 
L 525 4134 
L 525 4666 
z
" transform="scale(0.015625)"/>
       </defs>
       <use xlink:href="#DejaVuSans-32"/>
       <use xlink:href="#DejaVuSans-30" x="63.623047"/>
       <use xlink:href="#DejaVuSans-37" x="127.246094"/>
       <use xlink:href="#DejaVuSans-35" x="190.869141"/>
      </g>
     </g>
    </g>
    <g id="xtick_5">
     <g id="line2d_9">
      <path d="M 388.573991 312.999063 
L 388.573991 15.12 
" clip-path="url(#p37c738b3f3)" style="fill: none; stroke: #e5e5e5; stroke-width: 0.8"/>
     </g>
     <g id="line2d_10">
      <path d="M 388.573991 312.999063 
" style="fill: none; stroke: #000000; stroke-width: 1.5"/>
      <g>
       <use xlink:href="#m7fa2292b61" x="388.573991" y="312.999063" style="stroke: #333333"/>
      </g>
     </g>
     <g id="text_5">
      <!-- 2100 -->
      <g style="fill: #4d4d4d" transform="translate(373.303991 327.867188) scale(0.12 -0.12)">
       <defs>
        <path id="DejaVuSans-31" d="M 794 531 
L 1825 531 
L 1825 4091 
L 703 3866 
L 703 4441 
L 1819 4666 
L 2450 4666 
L 2450 531 
L 3481 531 
L 3481 0 
L 794 0 
L 794 531 
z
" transform="scale(0.015625)"/>
       </defs>
       <use xlink:href="#DejaVuSans-32"/>
       <use xlink:href="#DejaVuSans-31" x="63.623047"/>
       <use xlink:href="#DejaVuSans-30" x="127.246094"/>
       <use xlink:href="#DejaVuSans-30" x="190.869141"/>
      </g>
     </g>
    </g>
    <g id="xtick_6">
     <g id="line2d_11">
      <path d="M 115.501655 312.999063 
L 115.501655 15.12 
" clip-path="url(#p37c738b3f3)" style="fill: none; stroke: #fafafa"/>
     </g>
    </g>
    <g id="xtick_7">
     <g id="line2d_12">
      <path d="M 193.522322 312.999063 
L 193.522322 15.12 
" clip-path="url(#p37c738b3f3)" style="fill: none; stroke: #fafafa"/>
     </g>
    </g>
    <g id="xtick_8">
     <g id="line2d_13">
      <path d="M 271.54299 312.999063 
L 271.54299 15.12 
" clip-path="url(#p37c738b3f3)" style="fill: none; stroke: #fafafa"/>
     </g>
    </g>
    <g id="xtick_9">
     <g id="line2d_14">
      <path d="M 349.563658 312.999063 
L 349.563658 15.12 
" clip-path="url(#p37c738b3f3)" style="fill: none; stroke: #fafafa"/>
     </g>
    </g>
   </g>
   <g id="matplotlib.axis_2">
    <g id="ytick_1">
     <g id="line2d_15">
      <path d="M 60.887187 299.459105 
L 404.178125 299.459105 
" clip-path="url(#p37c738b3f3)" style="fill: none; stroke: #e5e5e5; stroke-width: 0.8"/>
     </g>
     <g id="line2d_16">
      <path d="M 60.887187 299.459105 
" style="fill: none; stroke: #000000; stroke-width: 1.5"/>
      <defs>
       <path id="m647c5781b9" d="M 0 0 
L -3.75 0 
" style="stroke: #333333"/>
      </defs>
      <g>
       <use xlink:href="#m647c5781b9" x="60.887187" y="299.459105" style="stroke: #333333"/>
      </g>
     </g>
     <g id="text_6">
      <!-- 0 -->
      <g style="fill: #4d4d4d" transform="translate(47.502187 302.770355) scale(0.12 -0.12)">
       <use xlink:href="#DejaVuSans-30"/>
      </g>
     </g>
    </g>
    <g id="ytick_2">
     <g id="line2d_17">
      <path d="M 60.887187 222.08792 
L 404.178125 222.08792 
" clip-path="url(#p37c738b3f3)" style="fill: none; stroke: #e5e5e5; stroke-width: 0.8"/>
     </g>
     <g id="line2d_18">
      <path d="M 60.887187 222.08792 
" style="fill: none; stroke: #000000; stroke-width: 1.5"/>
      <g>
       <use xlink:href="#m647c5781b9" x="60.887187" y="222.08792" style="stroke: #333333"/>
      </g>
     </g>
     <g id="text_7">
      <!-- 500 -->
      <g style="fill: #4d4d4d" transform="translate(32.232187 225.39917) scale(0.12 -0.12)">
       <use xlink:href="#DejaVuSans-35"/>
       <use xlink:href="#DejaVuSans-30" x="63.623047"/>
       <use xlink:href="#DejaVuSans-30" x="127.246094"/>
      </g>
     </g>
    </g>
    <g id="ytick_3">
     <g id="line2d_19">
      <path d="M 60.887187 144.716735 
L 404.178125 144.716735 
" clip-path="url(#p37c738b3f3)" style="fill: none; stroke: #e5e5e5; stroke-width: 0.8"/>
     </g>
     <g id="line2d_20">
      <path d="M 60.887187 144.716735 
" style="fill: none; stroke: #000000; stroke-width: 1.5"/>
      <g>
       <use xlink:href="#m647c5781b9" x="60.887187" y="144.716735" style="stroke: #333333"/>
      </g>
     </g>
     <g id="text_8">
      <!-- 1000 -->
      <g style="fill: #4d4d4d" transform="translate(24.597187 148.027985) scale(0.12 -0.12)">
       <use xlink:href="#DejaVuSans-31"/>
       <use xlink:href="#DejaVuSans-30" x="63.623047"/>
       <use xlink:href="#DejaVuSans-30" x="127.246094"/>
       <use xlink:href="#DejaVuSans-30" x="190.869141"/>
      </g>
     </g>
    </g>
    <g id="ytick_4">
     <g id="line2d_21">
      <path d="M 60.887187 67.34555 
L 404.178125 67.34555 
" clip-path="url(#p37c738b3f3)" style="fill: none; stroke: #e5e5e5; stroke-width: 0.8"/>
     </g>
     <g id="line2d_22">
      <path d="M 60.887187 67.34555 
" style="fill: none; stroke: #000000; stroke-width: 1.5"/>
      <g>
       <use xlink:href="#m647c5781b9" x="60.887187" y="67.34555" style="stroke: #333333"/>
      </g>
     </g>
     <g id="text_9">
      <!-- 1500 -->
      <g style="fill: #4d4d4d" transform="translate(24.597187 70.6568) scale(0.12 -0.12)">
       <use xlink:href="#DejaVuSans-31"/>
       <use xlink:href="#DejaVuSans-35" x="63.623047"/>
       <use xlink:href="#DejaVuSans-30" x="127.246094"/>
       <use xlink:href="#DejaVuSans-30" x="190.869141"/>
      </g>
     </g>
    </g>
    <g id="ytick_5">
     <g id="line2d_23">
      <path d="M 60.887187 260.773513 
L 404.178125 260.773513 
" clip-path="url(#p37c738b3f3)" style="fill: none; stroke: #fafafa"/>
     </g>
    </g>
    <g id="ytick_6">
     <g id="line2d_24">
      <path d="M 60.887187 183.402328 
L 404.178125 183.402328 
" clip-path="url(#p37c738b3f3)" style="fill: none; stroke: #fafafa"/>
     </g>
    </g>
    <g id="ytick_7">
     <g id="line2d_25">
      <path d="M 60.887187 106.031142 
L 404.178125 106.031142 
" clip-path="url(#p37c738b3f3)" style="fill: none; stroke: #fafafa"/>
     </g>
    </g>
    <g id="ytick_8">
     <g id="line2d_26">
      <path d="M 60.887187 28.659957 
L 404.178125 28.659957 
" clip-path="url(#p37c738b3f3)" style="fill: none; stroke: #fafafa"/>
     </g>
    </g>
   </g>
   <g id="PolyCollection_1">
    <path d="M 138.907855 223.101164 
L 138.907855 228.74507 
L 154.511989 230.108911 
L 170.116122 229.888627 
L 185.720256 229.963642 
L 201.324389 230.076875 
L 216.928523 228.531186 
L 232.532656 226.276106 
L 248.13679 220.993677 
L 263.740923 216.451418 
L 279.345057 208.898256 
L 294.94919 199.388307 
L 310.553324 188.320071 
L 326.157457 176.570211 
L 341.761591 163.002117 
L 357.365724 147.433309 
L 372.969858 129.751544 
L 388.573991 108.762341 
L 388.573991 20.186626 
L 388.573991 20.186626 
L 372.969858 49.118371 
L 357.365724 73.799164 
L 341.761591 95.406966 
L 326.157457 114.348477 
L 310.553324 131.118008 
L 294.94919 146.481874 
L 279.345057 159.81167 
L 263.740923 172.230681 
L 248.13679 183.727021 
L 232.532656 194.718615 
L 216.928523 202.422857 
L 201.324389 209.185219 
L 185.720256 214.069474 
L 170.116122 218.58239 
L 154.511989 222.749434 
L 138.907855 223.101164 
z
" clip-path="url(#p37c738b3f3)" style="fill: #db5f57; fill-opacity: 0.101961"/>
   </g>
   <g id="line2d_27">
    <path d="M 138.907855 228.74507 
L 154.511989 230.108911 
L 170.116122 229.888627 
L 185.720256 229.963642 
L 201.324389 230.076875 
L 216.928523 228.531186 
L 232.532656 226.276106 
L 248.13679 220.993677 
L 263.740923 216.451418 
L 279.345057 208.898256 
L 294.94919 199.388307 
L 310.553324 188.320071 
L 326.157457 176.570211 
L 341.761591 163.002117 
L 357.365724 147.433309 
L 372.969858 129.751544 
L 388.573991 108.762341 
" clip-path="url(#p37c738b3f3)" style="fill: none; stroke: #000000; stroke-opacity: 0; stroke-width: 0.886227; stroke-linejoin: miter"/>
   </g>
   <g id="line2d_28">
    <path d="M 138.907855 223.101164 
L 154.511989 222.749434 
L 170.116122 218.58239 
L 185.720256 214.069474 
L 201.324389 209.185219 
L 216.928523 202.422857 
L 232.532656 194.718615 
L 248.13679 183.727021 
L 263.740923 172.230681 
L 279.345057 159.81167 
L 294.94919 146.481874 
L 310.553324 131.118008 
L 326.157457 114.348477 
L 341.761591 95.406966 
L 357.365724 73.799164 
L 372.969858 49.118371 
L 388.573991 20.186626 
" clip-path="url(#p37c738b3f3)" style="fill: none; stroke: #000000; stroke-opacity: 0; stroke-width: 0.886227; stroke-linejoin: miter"/>
   </g>
   <g id="PolyCollection_2">
    <path d="M 138.907855 223.817918 
L 138.907855 229.402062 
L 154.511989 230.163702 
L 170.116122 228.52117 
L 185.720256 226.455311 
L 201.324389 224.369083 
L 216.928523 221.123606 
L 232.532656 217.597556 
L 248.13679 211.802447 
L 263.740923 206.852895 
L 279.345057 200.79016 
L 294.94919 193.593719 
L 310.553324 184.870905 
L 326.157457 175.381828 
L 341.761591 164.169329 
L 357.365724 151.833569 
L 372.969858 139.148591 
L 388.573991 125.801941 
L 388.573991 53.555122 
L 388.573991 53.555122 
L 372.969858 71.031869 
L 357.365724 87.972012 
L 341.761591 104.400861 
L 326.157457 120.010772 
L 310.553324 135.142292 
L 294.94919 149.905548 
L 279.345057 162.934446 
L 263.740923 174.735754 
L 248.13679 185.147909 
L 232.532656 195.357161 
L 216.928523 202.82455 
L 201.324389 209.548068 
L 185.720256 214.764904 
L 170.116122 219.578905 
L 154.511989 223.795694 
L 138.907855 223.817918 
z
" clip-path="url(#p37c738b3f3)" style="fill: #91db57; fill-opacity: 0.101961"/>
   </g>
   <g id="line2d_29">
    <path d="M 138.907855 229.402062 
L 154.511989 230.163702 
L 170.116122 228.52117 
L 185.720256 226.455311 
L 201.324389 224.369083 
L 216.928523 221.123606 
L 232.532656 217.597556 
L 248.13679 211.802447 
L 263.740923 206.852895 
L 279.345057 200.79016 
L 294.94919 193.593719 
L 310.553324 184.870905 
L 326.157457 175.381828 
L 341.761591 164.169329 
L 357.365724 151.833569 
L 372.969858 139.148591 
L 388.573991 125.801941 
" clip-path="url(#p37c738b3f3)" style="fill: none; stroke: #000000; stroke-opacity: 0; stroke-width: 0.886227; stroke-linejoin: miter"/>
   </g>
   <g id="line2d_30">
    <path d="M 138.907855 223.817918 
L 154.511989 223.795694 
L 170.116122 219.578905 
L 185.720256 214.764904 
L 201.324389 209.548068 
L 216.928523 202.82455 
L 232.532656 195.357161 
L 248.13679 185.147909 
L 263.740923 174.735754 
L 279.345057 162.934446 
L 294.94919 149.905548 
L 310.553324 135.142292 
L 326.157457 120.010772 
L 341.761591 104.400861 
L 357.365724 87.972012 
L 372.969858 71.031869 
L 388.573991 53.555122 
" clip-path="url(#p37c738b3f3)" style="fill: none; stroke: #000000; stroke-opacity: 0; stroke-width: 0.886227; stroke-linejoin: miter"/>
   </g>
   <g id="PolyCollection_3">
    <path d="M 138.907855 224.264143 
L 138.907855 229.747206 
L 154.511989 230.318087 
L 170.116122 228.048695 
L 185.720256 224.787568 
L 201.324389 221.363485 
L 216.928523 216.562041 
L 232.532656 211.704299 
L 248.13679 204.290652 
L 263.740923 197.849866 
L 279.345057 190.840957 
L 294.94919 183.524212 
L 310.553324 175.876445 
L 326.157457 168.848843 
L 341.761591 162.078543 
L 357.365724 156.041429 
L 372.969858 150.777449 
L 388.573991 146.396393 
L 388.573991 124.16201 
L 388.573991 124.16201 
L 372.969858 128.871929 
L 357.365724 134.578129 
L 341.761591 141.173615 
L 326.157457 148.618322 
L 310.553324 156.503746 
L 294.94919 165.01036 
L 279.345057 173.17285 
L 263.740923 181.00179 
L 248.13679 188.470543 
L 232.532656 196.679812 
L 216.928523 203.761686 
L 201.324389 210.472744 
L 185.720256 215.714955 
L 170.116122 220.491828 
L 154.511989 224.456267 
L 138.907855 224.264143 
z
" clip-path="url(#p37c738b3f3)" style="fill: #57d3db; fill-opacity: 0.101961"/>
   </g>
   <g id="line2d_31">
    <path d="M 138.907855 229.747206 
L 154.511989 230.318087 
L 170.116122 228.048695 
L 185.720256 224.787568 
L 201.324389 221.363485 
L 216.928523 216.562041 
L 232.532656 211.704299 
L 248.13679 204.290652 
L 263.740923 197.849866 
L 279.345057 190.840957 
L 294.94919 183.524212 
L 310.553324 175.876445 
L 326.157457 168.848843 
L 341.761591 162.078543 
L 357.365724 156.041429 
L 372.969858 150.777449 
L 388.573991 146.396393 
" clip-path="url(#p37c738b3f3)" style="fill: none; stroke: #000000; stroke-opacity: 0; stroke-width: 0.886227; stroke-linejoin: miter"/>
   </g>
   <g id="line2d_32">
    <path d="M 138.907855 224.264143 
L 154.511989 224.456267 
L 170.116122 220.491828 
L 185.720256 215.714955 
L 201.324389 210.472744 
L 216.928523 203.761686 
L 232.532656 196.679812 
L 248.13679 188.470543 
L 263.740923 181.00179 
L 279.345057 173.17285 
L 294.94919 165.01036 
L 310.553324 156.503746 
L 326.157457 148.618322 
L 341.761591 141.173615 
L 357.365724 134.578129 
L 372.969858 128.871929 
L 388.573991 124.16201 
" clip-path="url(#p37c738b3f3)" style="fill: none; stroke: #000000; stroke-opacity: 0; stroke-width: 0.886227; stroke-linejoin: miter"/>
   </g>
   <g id="PolyCollection_4">
    <path d="M 138.907855 223.477842 
L 138.907855 229.202558 
L 154.511989 231.538073 
L 170.116122 233.250388 
L 185.720256 235.856958 
L 201.324389 238.347669 
L 216.928523 239.522707 
L 232.532656 239.644538 
L 248.13679 237.078265 
L 263.740923 235.491712 
L 279.345057 232.020109 
L 294.94919 227.518093 
L 310.553324 221.261167 
L 326.157457 213.310095 
L 341.761591 203.647808 
L 357.365724 192.886947 
L 372.969858 180.681379 
L 388.573991 166.453189 
L 388.573991 60.569333 
L 388.573991 60.569333 
L 372.969858 83.590194 
L 357.365724 103.291891 
L 341.761591 120.662859 
L 326.157457 136.10552 
L 310.553324 149.934913 
L 294.94919 163.463265 
L 279.345057 175.68716 
L 263.740923 185.749078 
L 248.13679 194.518719 
L 232.532656 203.126169 
L 216.928523 208.993056 
L 201.324389 213.952102 
L 185.720256 217.366595 
L 170.116122 220.463874 
L 154.511989 223.658922 
L 138.907855 223.477842 
z
" clip-path="url(#p37c738b3f3)" style="fill: #a157db; fill-opacity: 0.101961"/>
   </g>
   <g id="line2d_33">
    <path d="M 138.907855 229.202558 
L 154.511989 231.538073 
L 170.116122 233.250388 
L 185.720256 235.856958 
L 201.324389 238.347669 
L 216.928523 239.522707 
L 232.532656 239.644538 
L 248.13679 237.078265 
L 263.740923 235.491712 
L 279.345057 232.020109 
L 294.94919 227.518093 
L 310.553324 221.261167 
L 326.157457 213.310095 
L 341.761591 203.647808 
L 357.365724 192.886947 
L 372.969858 180.681379 
L 388.573991 166.453189 
" clip-path="url(#p37c738b3f3)" style="fill: none; stroke: #000000; stroke-opacity: 0; stroke-width: 0.886227; stroke-linejoin: miter"/>
   </g>
   <g id="line2d_34">
    <path d="M 138.907855 223.477842 
L 154.511989 223.658922 
L 170.116122 220.463874 
L 185.720256 217.366595 
L 201.324389 213.952102 
L 216.928523 208.993056 
L 232.532656 203.126169 
L 248.13679 194.518719 
L 263.740923 185.749078 
L 279.345057 175.68716 
L 294.94919 163.463265 
L 310.553324 149.934913 
L 326.157457 136.10552 
L 341.761591 120.662859 
L 357.365724 103.291891 
L 372.969858 83.590194 
L 388.573991 60.569333 
" clip-path="url(#p37c738b3f3)" style="fill: none; stroke: #000000; stroke-opacity: 0; stroke-width: 0.886227; stroke-linejoin: miter"/>
   </g>
   <g id="line2d_35">
    <path d="M 138.907855 225.923117 
L 154.511989 226.429172 
L 170.116122 224.235508 
L 185.720256 222.016558 
L 201.324389 219.631047 
L 216.928523 215.477021 
L 232.532656 210.497361 
L 248.13679 202.360349 
L 263.740923 194.34105 
L 279.345057 184.354963 
L 294.94919 172.935091 
L 310.553324 159.71904 
L 326.157457 145.459344 
L 341.761591 129.204541 
L 357.365724 110.616236 
L 372.969858 89.434957 
L 388.573991 64.474484 
" clip-path="url(#p37c738b3f3)" style="fill: none; stroke: #db5f57; stroke-width: 0.886227"/>
   </g>
   <g id="line2d_36">
    <path d="M 138.907855 226.60999 
L 154.511989 226.979698 
L 170.116122 224.050037 
L 185.720256 220.610107 
L 201.324389 216.958575 
L 216.928523 211.974078 
L 232.532656 206.477359 
L 248.13679 198.475178 
L 263.740923 190.794325 
L 279.345057 181.862303 
L 294.94919 171.749633 
L 310.553324 160.006598 
L 326.157457 147.6963 
L 341.761591 134.285095 
L 357.365724 119.90279 
L 372.969858 105.09023 
L 388.573991 89.678531 
" clip-path="url(#p37c738b3f3)" style="fill: none; stroke: #91db57; stroke-width: 0.886227"/>
   </g>
   <g id="line2d_37">
    <path d="M 138.907855 227.005675 
L 154.511989 227.387177 
L 170.116122 224.270262 
L 185.720256 220.251261 
L 201.324389 215.918114 
L 216.928523 210.161863 
L 232.532656 204.192055 
L 248.13679 196.380597 
L 263.740923 189.425828 
L 279.345057 182.006904 
L 294.94919 174.267286 
L 310.553324 166.190096 
L 326.157457 158.733583 
L 341.761591 151.626079 
L 357.365724 145.309779 
L 372.969858 139.824689 
L 388.573991 135.279201 
" clip-path="url(#p37c738b3f3)" style="fill: none; stroke: #57d3db; stroke-width: 0.886227"/>
   </g>
   <g id="line2d_38">
    <path d="M 138.907855 226.3402 
L 154.511989 227.598498 
L 170.116122 226.857131 
L 185.720256 226.611777 
L 201.324389 226.149885 
L 216.928523 224.257881 
L 232.532656 221.385354 
L 248.13679 215.798492 
L 263.740923 210.620395 
L 279.345057 203.853634 
L 294.94919 195.490679 
L 310.553324 185.59804 
L 326.157457 174.707807 
L 341.761591 162.155334 
L 357.365724 148.089419 
L 372.969858 132.135786 
L 388.573991 113.511261 
" clip-path="url(#p37c738b3f3)" style="fill: none; stroke: #a157db; stroke-width: 0.886227"/>
   </g>
   <g id="line2d_39">
    <path d="M 76.491321 244.401282 
L 79.612148 245.875984 
L 82.732974 246.691396 
L 85.853801 252.191625 
L 88.974628 246.064693 
L 92.095455 242.333652 
L 95.216281 236.520284 
L 98.337108 235.095066 
L 101.457935 232.937833 
L 104.578761 232.100456 
L 107.699588 231.401713 
L 110.820415 229.397071 
L 113.941241 227.358806 
L 117.062068 226.462651 
L 120.182895 224.842088 
L 123.303722 222.172181 
L 126.424548 221.993077 
L 129.545375 221.484952 
L 132.666202 222.038874 
L 135.787028 221.55014 
L 138.907855 221.061256 
" clip-path="url(#p37c738b3f3)" style="fill: none; stroke-dasharray: 3.27904,1.417963; stroke-dashoffset: 0; stroke: #808080; stroke-width: 0.886227"/>
   </g>
   <g id="line2d_40">
    <path d="M 138.907855 237.562157 
L 170.116122 237.562157 
L 201.324389 237.562157 
L 232.532656 237.562157 
L 263.740923 237.562157 
L 294.94919 237.562157 
L 326.157457 237.562157 
L 357.365724 237.562157 
L 388.573991 237.562157 
" clip-path="url(#p37c738b3f3)" style="fill: none; stroke-dasharray: 1.772454,2.924549; stroke-dashoffset: 0; stroke: #f19c57; stroke-width: 1.772454"/>
   </g>
  </g>
  <g id="text_10">
   <!-- year -->
   <g transform="translate(215.799453 346.800469) scale(0.15 -0.15)">
    <defs>
     <path id="DejaVuSans-79" d="M 2059 -325 
Q 1816 -950 1584 -1140 
Q 1353 -1331 966 -1331 
L 506 -1331 
L 506 -850 
L 844 -850 
Q 1081 -850 1212 -737 
Q 1344 -625 1503 -206 
L 1606 56 
L 191 3500 
L 800 3500 
L 1894 763 
L 2988 3500 
L 3597 3500 
L 2059 -325 
z
" transform="scale(0.015625)"/>
     <path id="DejaVuSans-65" d="M 3597 1894 
L 3597 1613 
L 953 1613 
Q 991 1019 1311 708 
Q 1631 397 2203 397 
Q 2534 397 2845 478 
Q 3156 559 3463 722 
L 3463 178 
Q 3153 47 2828 -22 
Q 2503 -91 2169 -91 
Q 1331 -91 842 396 
Q 353 884 353 1716 
Q 353 2575 817 3079 
Q 1281 3584 2069 3584 
Q 2775 3584 3186 3129 
Q 3597 2675 3597 1894 
z
M 3022 2063 
Q 3016 2534 2758 2815 
Q 2500 3097 2075 3097 
Q 1594 3097 1305 2825 
Q 1016 2553 972 2059 
L 3022 2063 
z
" transform="scale(0.015625)"/>
     <path id="DejaVuSans-61" d="M 2194 1759 
Q 1497 1759 1228 1600 
Q 959 1441 959 1056 
Q 959 750 1161 570 
Q 1363 391 1709 391 
Q 2188 391 2477 730 
Q 2766 1069 2766 1631 
L 2766 1759 
L 2194 1759 
z
M 3341 1997 
L 3341 0 
L 2766 0 
L 2766 531 
Q 2569 213 2275 61 
Q 1981 -91 1556 -91 
Q 1019 -91 701 211 
Q 384 513 384 1019 
Q 384 1609 779 1909 
Q 1175 2209 1959 2209 
L 2766 2209 
L 2766 2266 
Q 2766 2663 2505 2880 
Q 2244 3097 1772 3097 
Q 1472 3097 1187 3025 
Q 903 2953 641 2809 
L 641 3341 
Q 956 3463 1253 3523 
Q 1550 3584 1831 3584 
Q 2591 3584 2966 3190 
Q 3341 2797 3341 1997 
z
" transform="scale(0.015625)"/>
     <path id="DejaVuSans-72" d="M 2631 2963 
Q 2534 3019 2420 3045 
Q 2306 3072 2169 3072 
Q 1681 3072 1420 2755 
Q 1159 2438 1159 1844 
L 1159 0 
L 581 0 
L 581 3500 
L 1159 3500 
L 1159 2956 
Q 1341 3275 1631 3429 
Q 1922 3584 2338 3584 
Q 2397 3584 2469 3576 
Q 2541 3569 2628 3553 
L 2631 2963 
z
" transform="scale(0.015625)"/>
    </defs>
    <use xlink:href="#DejaVuSans-79"/>
    <use xlink:href="#DejaVuSans-65" x="59.179688"/>
    <use xlink:href="#DejaVuSans-61" x="120.703125"/>
    <use xlink:href="#DejaVuSans-72" x="181.982422"/>
   </g>
  </g>
  <g id="text_11">
   <!-- Production (kg/person) -->
   <g transform="translate(16.437656 249.53375) rotate(-90) scale(0.15 -0.15)">
    <defs>
     <path id="DejaVuSans-50" d="M 1259 4147 
L 1259 2394 
L 2053 2394 
Q 2494 2394 2734 2622 
Q 2975 2850 2975 3272 
Q 2975 3691 2734 3919 
Q 2494 4147 2053 4147 
L 1259 4147 
z
M 628 4666 
L 2053 4666 
Q 2838 4666 3239 4311 
Q 3641 3956 3641 3272 
Q 3641 2581 3239 2228 
Q 2838 1875 2053 1875 
L 1259 1875 
L 1259 0 
L 628 0 
L 628 4666 
z
" transform="scale(0.015625)"/>
     <path id="DejaVuSans-6f" d="M 1959 3097 
Q 1497 3097 1228 2736 
Q 959 2375 959 1747 
Q 959 1119 1226 758 
Q 1494 397 1959 397 
Q 2419 397 2687 759 
Q 2956 1122 2956 1747 
Q 2956 2369 2687 2733 
Q 2419 3097 1959 3097 
z
M 1959 3584 
Q 2709 3584 3137 3096 
Q 3566 2609 3566 1747 
Q 3566 888 3137 398 
Q 2709 -91 1959 -91 
Q 1206 -91 779 398 
Q 353 888 353 1747 
Q 353 2609 779 3096 
Q 1206 3584 1959 3584 
z
" transform="scale(0.015625)"/>
     <path id="DejaVuSans-64" d="M 2906 2969 
L 2906 4863 
L 3481 4863 
L 3481 0 
L 2906 0 
L 2906 525 
Q 2725 213 2448 61 
Q 2172 -91 1784 -91 
Q 1150 -91 751 415 
Q 353 922 353 1747 
Q 353 2572 751 3078 
Q 1150 3584 1784 3584 
Q 2172 3584 2448 3432 
Q 2725 3281 2906 2969 
z
M 947 1747 
Q 947 1113 1208 752 
Q 1469 391 1925 391 
Q 2381 391 2643 752 
Q 2906 1113 2906 1747 
Q 2906 2381 2643 2742 
Q 2381 3103 1925 3103 
Q 1469 3103 1208 2742 
Q 947 2381 947 1747 
z
" transform="scale(0.015625)"/>
     <path id="DejaVuSans-75" d="M 544 1381 
L 544 3500 
L 1119 3500 
L 1119 1403 
Q 1119 906 1312 657 
Q 1506 409 1894 409 
Q 2359 409 2629 706 
Q 2900 1003 2900 1516 
L 2900 3500 
L 3475 3500 
L 3475 0 
L 2900 0 
L 2900 538 
Q 2691 219 2414 64 
Q 2138 -91 1772 -91 
Q 1169 -91 856 284 
Q 544 659 544 1381 
z
M 1991 3584 
L 1991 3584 
z
" transform="scale(0.015625)"/>
     <path id="DejaVuSans-63" d="M 3122 3366 
L 3122 2828 
Q 2878 2963 2633 3030 
Q 2388 3097 2138 3097 
Q 1578 3097 1268 2742 
Q 959 2388 959 1747 
Q 959 1106 1268 751 
Q 1578 397 2138 397 
Q 2388 397 2633 464 
Q 2878 531 3122 666 
L 3122 134 
Q 2881 22 2623 -34 
Q 2366 -91 2075 -91 
Q 1284 -91 818 406 
Q 353 903 353 1747 
Q 353 2603 823 3093 
Q 1294 3584 2113 3584 
Q 2378 3584 2631 3529 
Q 2884 3475 3122 3366 
z
" transform="scale(0.015625)"/>
     <path id="DejaVuSans-74" d="M 1172 4494 
L 1172 3500 
L 2356 3500 
L 2356 3053 
L 1172 3053 
L 1172 1153 
Q 1172 725 1289 603 
Q 1406 481 1766 481 
L 2356 481 
L 2356 0 
L 1766 0 
Q 1100 0 847 248 
Q 594 497 594 1153 
L 594 3053 
L 172 3053 
L 172 3500 
L 594 3500 
L 594 4494 
L 1172 4494 
z
" transform="scale(0.015625)"/>
     <path id="DejaVuSans-69" d="M 603 3500 
L 1178 3500 
L 1178 0 
L 603 0 
L 603 3500 
z
M 603 4863 
L 1178 4863 
L 1178 4134 
L 603 4134 
L 603 4863 
z
" transform="scale(0.015625)"/>
     <path id="DejaVuSans-6e" d="M 3513 2113 
L 3513 0 
L 2938 0 
L 2938 2094 
Q 2938 2591 2744 2837 
Q 2550 3084 2163 3084 
Q 1697 3084 1428 2787 
Q 1159 2491 1159 1978 
L 1159 0 
L 581 0 
L 581 3500 
L 1159 3500 
L 1159 2956 
Q 1366 3272 1645 3428 
Q 1925 3584 2291 3584 
Q 2894 3584 3203 3211 
Q 3513 2838 3513 2113 
z
" transform="scale(0.015625)"/>
     <path id="DejaVuSans-20" transform="scale(0.015625)"/>
     <path id="DejaVuSans-28" d="M 1984 4856 
Q 1566 4138 1362 3434 
Q 1159 2731 1159 2009 
Q 1159 1288 1364 580 
Q 1569 -128 1984 -844 
L 1484 -844 
Q 1016 -109 783 600 
Q 550 1309 550 2009 
Q 550 2706 781 3412 
Q 1013 4119 1484 4856 
L 1984 4856 
z
" transform="scale(0.015625)"/>
     <path id="DejaVuSans-6b" d="M 581 4863 
L 1159 4863 
L 1159 1991 
L 2875 3500 
L 3609 3500 
L 1753 1863 
L 3688 0 
L 2938 0 
L 1159 1709 
L 1159 0 
L 581 0 
L 581 4863 
z
" transform="scale(0.015625)"/>
     <path id="DejaVuSans-67" d="M 2906 1791 
Q 2906 2416 2648 2759 
Q 2391 3103 1925 3103 
Q 1463 3103 1205 2759 
Q 947 2416 947 1791 
Q 947 1169 1205 825 
Q 1463 481 1925 481 
Q 2391 481 2648 825 
Q 2906 1169 2906 1791 
z
M 3481 434 
Q 3481 -459 3084 -895 
Q 2688 -1331 1869 -1331 
Q 1566 -1331 1297 -1286 
Q 1028 -1241 775 -1147 
L 775 -588 
Q 1028 -725 1275 -790 
Q 1522 -856 1778 -856 
Q 2344 -856 2625 -561 
Q 2906 -266 2906 331 
L 2906 616 
Q 2728 306 2450 153 
Q 2172 0 1784 0 
Q 1141 0 747 490 
Q 353 981 353 1791 
Q 353 2603 747 3093 
Q 1141 3584 1784 3584 
Q 2172 3584 2450 3431 
Q 2728 3278 2906 2969 
L 2906 3500 
L 3481 3500 
L 3481 434 
z
" transform="scale(0.015625)"/>
     <path id="DejaVuSans-2f" d="M 1625 4666 
L 2156 4666 
L 531 -594 
L 0 -594 
L 1625 4666 
z
" transform="scale(0.015625)"/>
     <path id="DejaVuSans-70" d="M 1159 525 
L 1159 -1331 
L 581 -1331 
L 581 3500 
L 1159 3500 
L 1159 2969 
Q 1341 3281 1617 3432 
Q 1894 3584 2278 3584 
Q 2916 3584 3314 3078 
Q 3713 2572 3713 1747 
Q 3713 922 3314 415 
Q 2916 -91 2278 -91 
Q 1894 -91 1617 61 
Q 1341 213 1159 525 
z
M 3116 1747 
Q 3116 2381 2855 2742 
Q 2594 3103 2138 3103 
Q 1681 3103 1420 2742 
Q 1159 2381 1159 1747 
Q 1159 1113 1420 752 
Q 1681 391 2138 391 
Q 2594 391 2855 752 
Q 3116 1113 3116 1747 
z
" transform="scale(0.015625)"/>
     <path id="DejaVuSans-73" d="M 2834 3397 
L 2834 2853 
Q 2591 2978 2328 3040 
Q 2066 3103 1784 3103 
Q 1356 3103 1142 2972 
Q 928 2841 928 2578 
Q 928 2378 1081 2264 
Q 1234 2150 1697 2047 
L 1894 2003 
Q 2506 1872 2764 1633 
Q 3022 1394 3022 966 
Q 3022 478 2636 193 
Q 2250 -91 1575 -91 
Q 1294 -91 989 -36 
Q 684 19 347 128 
L 347 722 
Q 666 556 975 473 
Q 1284 391 1588 391 
Q 1994 391 2212 530 
Q 2431 669 2431 922 
Q 2431 1156 2273 1281 
Q 2116 1406 1581 1522 
L 1381 1569 
Q 847 1681 609 1914 
Q 372 2147 372 2553 
Q 372 3047 722 3315 
Q 1072 3584 1716 3584 
Q 2034 3584 2315 3537 
Q 2597 3491 2834 3397 
z
" transform="scale(0.015625)"/>
     <path id="DejaVuSans-29" d="M 513 4856 
L 1013 4856 
Q 1481 4119 1714 3412 
Q 1947 2706 1947 2009 
Q 1947 1309 1714 600 
Q 1481 -109 1013 -844 
L 513 -844 
Q 928 -128 1133 580 
Q 1338 1288 1338 2009 
Q 1338 2731 1133 3434 
Q 928 4138 513 4856 
z
" transform="scale(0.015625)"/>
    </defs>
    <use xlink:href="#DejaVuSans-50"/>
    <use xlink:href="#DejaVuSans-72" x="58.552734"/>
    <use xlink:href="#DejaVuSans-6f" x="97.416016"/>
    <use xlink:href="#DejaVuSans-64" x="158.597656"/>
    <use xlink:href="#DejaVuSans-75" x="222.074219"/>
    <use xlink:href="#DejaVuSans-63" x="285.453125"/>
    <use xlink:href="#DejaVuSans-74" x="340.433594"/>
    <use xlink:href="#DejaVuSans-69" x="379.642578"/>
    <use xlink:href="#DejaVuSans-6f" x="407.425781"/>
    <use xlink:href="#DejaVuSans-6e" x="468.607422"/>
    <use xlink:href="#DejaVuSans-20" x="531.986328"/>
    <use xlink:href="#DejaVuSans-28" x="563.773438"/>
    <use xlink:href="#DejaVuSans-6b" x="602.787109"/>
    <use xlink:href="#DejaVuSans-67" x="660.697266"/>
    <use xlink:href="#DejaVuSans-2f" x="724.173828"/>
    <use xlink:href="#DejaVuSans-70" x="757.865234"/>
    <use xlink:href="#DejaVuSans-65" x="821.341797"/>
    <use xlink:href="#DejaVuSans-72" x="882.865234"/>
    <use xlink:href="#DejaVuSans-73" x="923.978516"/>
    <use xlink:href="#DejaVuSans-6f" x="976.078125"/>
    <use xlink:href="#DejaVuSans-6e" x="1037.259766"/>
    <use xlink:href="#DejaVuSans-29" x="1100.638672"/>
   </g>
  </g>
  <g id="patch_3">
   <path d="M 419.298125 245.816719 
L 498.96 245.816719 
L 498.96 82.302344 
L 419.298125 82.302344 
z
" style="fill: #ffffff"/>
  </g>
  <g id="text_12">
   <!-- Scenario -->
   <g transform="translate(419.498125 98.039062) scale(0.15 -0.15)">
    <defs>
     <path id="DejaVuSans-53" d="M 3425 4513 
L 3425 3897 
Q 3066 4069 2747 4153 
Q 2428 4238 2131 4238 
Q 1616 4238 1336 4038 
Q 1056 3838 1056 3469 
Q 1056 3159 1242 3001 
Q 1428 2844 1947 2747 
L 2328 2669 
Q 3034 2534 3370 2195 
Q 3706 1856 3706 1288 
Q 3706 609 3251 259 
Q 2797 -91 1919 -91 
Q 1588 -91 1214 -16 
Q 841 59 441 206 
L 441 856 
Q 825 641 1194 531 
Q 1563 422 1919 422 
Q 2459 422 2753 634 
Q 3047 847 3047 1241 
Q 3047 1584 2836 1778 
Q 2625 1972 2144 2069 
L 1759 2144 
Q 1053 2284 737 2584 
Q 422 2884 422 3419 
Q 422 4038 858 4394 
Q 1294 4750 2059 4750 
Q 2388 4750 2728 4690 
Q 3069 4631 3425 4513 
z
" transform="scale(0.015625)"/>
    </defs>
    <use xlink:href="#DejaVuSans-53"/>
    <use xlink:href="#DejaVuSans-63" x="63.476562"/>
    <use xlink:href="#DejaVuSans-65" x="118.457031"/>
    <use xlink:href="#DejaVuSans-6e" x="179.980469"/>
    <use xlink:href="#DejaVuSans-61" x="243.359375"/>
    <use xlink:href="#DejaVuSans-72" x="304.638672"/>
    <use xlink:href="#DejaVuSans-69" x="345.751953"/>
    <use xlink:href="#DejaVuSans-6f" x="373.535156"/>
   </g>
  </g>
  <g id="patch_4">
   <path d="M 419.498125 123.659531 
L 441.098125 123.659531 
L 441.098125 102.059531 
L 419.498125 102.059531 
z
" clip-path="url(#p712dd6684b)" style="fill: #f2f2f2; stroke: #cccccc; stroke-linejoin: miter"/>
  </g>
  <g id="patch_5">
   <path d="M 419.941238 123.216418 
L 440.655012 123.216418 
L 440.655012 102.502645 
L 419.941238 102.502645 
z
" clip-path="url(#p712dd6684b)" style="fill: #db5f57; fill-opacity: 0.101961"/>
  </g>
  <g id="line2d_41">
   <path d="M 419.498125 112.859531 
L 441.098125 112.859531 
" clip-path="url(#p712dd6684b)" style="fill: none; stroke: #db5f57; stroke-width: 0.886227"/>
  </g>
  <g id="text_13">
   <!-- SSP1-26 -->
   <g transform="translate(444.098125 116.170781) scale(0.12 -0.12)">
    <defs>
     <path id="DejaVuSans-2d" d="M 313 2009 
L 1997 2009 
L 1997 1497 
L 313 1497 
L 313 2009 
z
" transform="scale(0.015625)"/>
     <path id="DejaVuSans-36" d="M 2113 2584 
Q 1688 2584 1439 2293 
Q 1191 2003 1191 1497 
Q 1191 994 1439 701 
Q 1688 409 2113 409 
Q 2538 409 2786 701 
Q 3034 994 3034 1497 
Q 3034 2003 2786 2293 
Q 2538 2584 2113 2584 
z
M 3366 4563 
L 3366 3988 
Q 3128 4100 2886 4159 
Q 2644 4219 2406 4219 
Q 1781 4219 1451 3797 
Q 1122 3375 1075 2522 
Q 1259 2794 1537 2939 
Q 1816 3084 2150 3084 
Q 2853 3084 3261 2657 
Q 3669 2231 3669 1497 
Q 3669 778 3244 343 
Q 2819 -91 2113 -91 
Q 1303 -91 875 529 
Q 447 1150 447 2328 
Q 447 3434 972 4092 
Q 1497 4750 2381 4750 
Q 2619 4750 2861 4703 
Q 3103 4656 3366 4563 
z
" transform="scale(0.015625)"/>
    </defs>
    <use xlink:href="#DejaVuSans-53"/>
    <use xlink:href="#DejaVuSans-53" x="63.476562"/>
    <use xlink:href="#DejaVuSans-50" x="126.953125"/>
    <use xlink:href="#DejaVuSans-31" x="187.255859"/>
    <use xlink:href="#DejaVuSans-2d" x="250.878906"/>
    <use xlink:href="#DejaVuSans-32" x="286.962891"/>
    <use xlink:href="#DejaVuSans-36" x="350.585938"/>
   </g>
  </g>
  <g id="patch_6">
   <path d="M 419.498125 147.259531 
L 441.098125 147.259531 
L 441.098125 125.659531 
L 419.498125 125.659531 
z
" clip-path="url(#p71857070b8)" style="fill: #f2f2f2; stroke: #cccccc; stroke-linejoin: miter"/>
  </g>
  <g id="patch_7">
   <path d="M 419.941238 146.816418 
L 440.655012 146.816418 
L 440.655012 126.102645 
L 419.941238 126.102645 
z
" clip-path="url(#p71857070b8)" style="fill: #91db57; fill-opacity: 0.101961"/>
  </g>
  <g id="line2d_42">
   <path d="M 419.498125 136.459531 
L 441.098125 136.459531 
" clip-path="url(#p71857070b8)" style="fill: none; stroke: #91db57; stroke-width: 0.886227"/>
  </g>
  <g id="text_14">
   <!-- SSP2-45 -->
   <g transform="translate(444.098125 139.770781) scale(0.12 -0.12)">
    <defs>
     <path id="DejaVuSans-34" d="M 2419 4116 
L 825 1625 
L 2419 1625 
L 2419 4116 
z
M 2253 4666 
L 3047 4666 
L 3047 1625 
L 3713 1625 
L 3713 1100 
L 3047 1100 
L 3047 0 
L 2419 0 
L 2419 1100 
L 313 1100 
L 313 1709 
L 2253 4666 
z
" transform="scale(0.015625)"/>
    </defs>
    <use xlink:href="#DejaVuSans-53"/>
    <use xlink:href="#DejaVuSans-53" x="63.476562"/>
    <use xlink:href="#DejaVuSans-50" x="126.953125"/>
    <use xlink:href="#DejaVuSans-32" x="187.255859"/>
    <use xlink:href="#DejaVuSans-2d" x="250.878906"/>
    <use xlink:href="#DejaVuSans-34" x="286.962891"/>
    <use xlink:href="#DejaVuSans-35" x="350.585938"/>
   </g>
  </g>
  <g id="patch_8">
   <path d="M 419.498125 170.859531 
L 441.098125 170.859531 
L 441.098125 149.259531 
L 419.498125 149.259531 
z
" clip-path="url(#pf0a680f228)" style="fill: #f2f2f2; stroke: #cccccc; stroke-linejoin: miter"/>
  </g>
  <g id="patch_9">
   <path d="M 419.941238 170.416418 
L 440.655012 170.416418 
L 440.655012 149.702645 
L 419.941238 149.702645 
z
" clip-path="url(#pf0a680f228)" style="fill: #57d3db; fill-opacity: 0.101961"/>
  </g>
  <g id="line2d_43">
   <path d="M 419.498125 160.059531 
L 441.098125 160.059531 
" clip-path="url(#pf0a680f228)" style="fill: none; stroke: #57d3db; stroke-width: 0.886227"/>
  </g>
  <g id="text_15">
   <!-- SSP3-60 -->
   <g transform="translate(444.098125 163.370781) scale(0.12 -0.12)">
    <defs>
     <path id="DejaVuSans-33" d="M 2597 2516 
Q 3050 2419 3304 2112 
Q 3559 1806 3559 1356 
Q 3559 666 3084 287 
Q 2609 -91 1734 -91 
Q 1441 -91 1130 -33 
Q 819 25 488 141 
L 488 750 
Q 750 597 1062 519 
Q 1375 441 1716 441 
Q 2309 441 2620 675 
Q 2931 909 2931 1356 
Q 2931 1769 2642 2001 
Q 2353 2234 1838 2234 
L 1294 2234 
L 1294 2753 
L 1863 2753 
Q 2328 2753 2575 2939 
Q 2822 3125 2822 3475 
Q 2822 3834 2567 4026 
Q 2313 4219 1838 4219 
Q 1578 4219 1281 4162 
Q 984 4106 628 3988 
L 628 4550 
Q 988 4650 1302 4700 
Q 1616 4750 1894 4750 
Q 2613 4750 3031 4423 
Q 3450 4097 3450 3541 
Q 3450 3153 3228 2886 
Q 3006 2619 2597 2516 
z
" transform="scale(0.015625)"/>
    </defs>
    <use xlink:href="#DejaVuSans-53"/>
    <use xlink:href="#DejaVuSans-53" x="63.476562"/>
    <use xlink:href="#DejaVuSans-50" x="126.953125"/>
    <use xlink:href="#DejaVuSans-33" x="187.255859"/>
    <use xlink:href="#DejaVuSans-2d" x="250.878906"/>
    <use xlink:href="#DejaVuSans-36" x="286.962891"/>
    <use xlink:href="#DejaVuSans-30" x="350.585938"/>
   </g>
  </g>
  <g id="patch_10">
   <path d="M 419.498125 194.459531 
L 441.098125 194.459531 
L 441.098125 172.859531 
L 419.498125 172.859531 
z
" clip-path="url(#p837d87a373)" style="fill: #f2f2f2; stroke: #cccccc; stroke-linejoin: miter"/>
  </g>
  <g id="patch_11">
   <path d="M 419.941238 194.016418 
L 440.655012 194.016418 
L 440.655012 173.302645 
L 419.941238 173.302645 
z
" clip-path="url(#p837d87a373)" style="fill: #a157db; fill-opacity: 0.101961"/>
  </g>
  <g id="line2d_44">
   <path d="M 419.498125 183.659531 
L 441.098125 183.659531 
" clip-path="url(#p837d87a373)" style="fill: none; stroke: #a157db; stroke-width: 0.886227"/>
  </g>
  <g id="text_16">
   <!-- SSP5-85 -->
   <g transform="translate(444.098125 186.970781) scale(0.12 -0.12)">
    <defs>
     <path id="DejaVuSans-38" d="M 2034 2216 
Q 1584 2216 1326 1975 
Q 1069 1734 1069 1313 
Q 1069 891 1326 650 
Q 1584 409 2034 409 
Q 2484 409 2743 651 
Q 3003 894 3003 1313 
Q 3003 1734 2745 1975 
Q 2488 2216 2034 2216 
z
M 1403 2484 
Q 997 2584 770 2862 
Q 544 3141 544 3541 
Q 544 4100 942 4425 
Q 1341 4750 2034 4750 
Q 2731 4750 3128 4425 
Q 3525 4100 3525 3541 
Q 3525 3141 3298 2862 
Q 3072 2584 2669 2484 
Q 3125 2378 3379 2068 
Q 3634 1759 3634 1313 
Q 3634 634 3220 271 
Q 2806 -91 2034 -91 
Q 1263 -91 848 271 
Q 434 634 434 1313 
Q 434 1759 690 2068 
Q 947 2378 1403 2484 
z
M 1172 3481 
Q 1172 3119 1398 2916 
Q 1625 2713 2034 2713 
Q 2441 2713 2670 2916 
Q 2900 3119 2900 3481 
Q 2900 3844 2670 4047 
Q 2441 4250 2034 4250 
Q 1625 4250 1398 4047 
Q 1172 3844 1172 3481 
z
" transform="scale(0.015625)"/>
    </defs>
    <use xlink:href="#DejaVuSans-53"/>
    <use xlink:href="#DejaVuSans-53" x="63.476562"/>
    <use xlink:href="#DejaVuSans-50" x="126.953125"/>
    <use xlink:href="#DejaVuSans-35" x="187.255859"/>
    <use xlink:href="#DejaVuSans-2d" x="250.878906"/>
    <use xlink:href="#DejaVuSans-38" x="286.962891"/>
    <use xlink:href="#DejaVuSans-35" x="350.585938"/>
   </g>
  </g>
  <g id="text_17">
   <!--   -->
   <g transform="translate(419.498125 219.99625) scale(0.15 -0.15)">
    <use xlink:href="#DejaVuSans-20"/>
   </g>
  </g>
  <g id="patch_12">
   <path d="M 419.498125 245.616719 
L 441.098125 245.616719 
L 441.098125 224.016719 
L 419.498125 224.016719 
z
" clip-path="url(#pfcc85f3cd8)" style="fill: #f2f2f2; stroke: #cccccc; stroke-linejoin: miter"/>
  </g>
  <g id="line2d_45">
   <path d="M 419.498125 234.816719 
L 441.098125 234.816719 
" clip-path="url(#pfcc85f3cd8)" style="fill: none; stroke-dasharray: 3.27904,1.417963; stroke-dashoffset: 0; stroke: #808080; stroke-width: 0.886227"/>
  </g>
  <g id="text_18">
   <!-- Yearbook -->
   <g transform="translate(444.098125 238.127969) scale(0.12 -0.12)">
    <defs>
     <path id="DejaVuSans-59" d="M -13 4666 
L 666 4666 
L 1959 2747 
L 3244 4666 
L 3922 4666 
L 2272 2222 
L 2272 0 
L 1638 0 
L 1638 2222 
L -13 4666 
z
" transform="scale(0.015625)"/>
     <path id="DejaVuSans-62" d="M 3116 1747 
Q 3116 2381 2855 2742 
Q 2594 3103 2138 3103 
Q 1681 3103 1420 2742 
Q 1159 2381 1159 1747 
Q 1159 1113 1420 752 
Q 1681 391 2138 391 
Q 2594 391 2855 752 
Q 3116 1113 3116 1747 
z
M 1159 2969 
Q 1341 3281 1617 3432 
Q 1894 3584 2278 3584 
Q 2916 3584 3314 3078 
Q 3713 2572 3713 1747 
Q 3713 922 3314 415 
Q 2916 -91 2278 -91 
Q 1894 -91 1617 61 
Q 1341 213 1159 525 
L 1159 0 
L 581 0 
L 581 4863 
L 1159 4863 
L 1159 2969 
z
" transform="scale(0.015625)"/>
    </defs>
    <use xlink:href="#DejaVuSans-59"/>
    <use xlink:href="#DejaVuSans-65" x="47.833984"/>
    <use xlink:href="#DejaVuSans-61" x="109.357422"/>
    <use xlink:href="#DejaVuSans-72" x="170.636719"/>
    <use xlink:href="#DejaVuSans-62" x="211.75"/>
    <use xlink:href="#DejaVuSans-6f" x="275.226562"/>
    <use xlink:href="#DejaVuSans-6f" x="336.408203"/>
    <use xlink:href="#DejaVuSans-6b" x="397.589844"/>
   </g>
  </g>
 </g>
 <defs>
  <clipPath id="p37c738b3f3">
   <rect x="60.887187" y="15.12" width="343.290938" height="297.879063"/>
  </clipPath>
  <clipPath id="p712dd6684b">
   <path d="M 419.498125 123.659531 
L 419.498125 102.059531 
L 441.098125 102.059531 
L 441.098125 123.659531 
"/>
  </clipPath>
  <clipPath id="p71857070b8">
   <path d="M 419.498125 147.259531 
L 419.498125 125.659531 
L 441.098125 125.659531 
L 441.098125 147.259531 
"/>
  </clipPath>
  <clipPath id="pf0a680f228">
   <path d="M 419.498125 170.859531 
L 419.498125 149.259531 
L 441.098125 149.259531 
L 441.098125 170.859531 
"/>
  </clipPath>
  <clipPath id="p837d87a373">
   <path d="M 419.498125 194.459531 
L 419.498125 172.859531 
L 441.098125 172.859531 
L 441.098125 194.459531 
"/>
  </clipPath>
  <clipPath id="pfcc85f3cd8">
   <path d="M 419.498125 245.616719 
L 419.498125 224.016719 
L 441.098125 224.016719 
L 441.098125 245.616719 
"/>
  </clipPath>
 </defs>
</svg>
